<?xml version="1.0" encoding="utf-8"?>
<!-- Generator: Adobe Illustrator 18.0.0, SVG Export Plug-In . SVG Version: 6.00 Build 0)  -->
<!DOCTYPE svg PUBLIC "-//W3C//DTD SVG 1.1//EN" "http://www.w3.org/Graphics/SVG/1.1/DTD/svg11.dtd">
<svg version="1.1" id="圖層_1" xmlns="http://www.w3.org/2000/svg" xmlns:xlink="http://www.w3.org/1999/xlink" x="0px" y="0px"
	 viewBox="0 0 469 469" enable-background="new 0 0 469 469" xml:space="preserve">
<g>
	<path fill="#FFE5EC" d="M76.5,55.9c0.2-1.2-0.6-2.4-1.8-2.7l-18.1-3.3c-1.2-0.2-2.4,0.6-2.7,1.8l-3.3,18.1
		c-0.2,1.2,0.6,2.4,1.8,2.7l18.1,3.3c1.2,0.2,2.4-0.6,2.7-1.8L76.5,55.9z"/>
	<path fill="#FFE5EC" d="M51.3,77.4l23.6,4.3l-4.5,24.6c-0.1,0.8,0.4,1.6,1.2,1.7c0.8,0.1,1.6-0.4,1.7-1.2l4.5-24.6l24.6,4.5
		c0.8,0.1,1.6-0.4,1.7-1.2c0.1-0.8-0.4-1.6-1.2-1.7l-24.6-4.5l4.5-24.6c0.1-0.8-0.4-1.6-1.2-1.7c-0.8-0.1-1.6,0.4-1.7,1.2l-4.5,24.6
		l-23.6-4.3c-0.8-0.1-1.6,0.4-1.7,1.2C49.9,76.5,50.5,77.3,51.3,77.4z"/>
	<path fill="#FFE5EC" d="M112.6,59.1c-1.1-0.2-2.1,0.5-2.3,1.6l-10,55.1L48,106.3c-1.1-0.2-2.1,0.5-2.3,1.6
		c-0.2,1.1,0.5,2.1,1.6,2.3l54.1,9.9c1.1,0.2,2.1-0.5,2.3-1.6l10.4-57.1C114.4,60.4,113.6,59.3,112.6,59.1z"/>
	<path fill="#FFE5EC" d="M65,106.3c1.2,0.2,2.4-0.6,2.7-1.8L71,86.4c0.2-1.2-0.6-2.4-1.8-2.7L51,80.4c-1.2-0.2-2.4,0.6-2.7,1.8
		l-3.3,18.1c-0.2,1.2,0.6,2.4,1.8,2.7L65,106.3z M54.1,86.8c0.6,0.1,1,0.7,0.9,1.3c-0.1,0.6-0.7,1-1.3,0.9c-0.6-0.1-1-0.7-0.9-1.3
		S53.5,86.7,54.1,86.8z"/>
	<path fill="#FFE5EC" d="M81.5,86c-1.2-0.2-2.4,0.6-2.7,1.8l-3.3,18.1c-0.2,1.2,0.6,2.4,1.8,2.7l18.1,3.3c1.2,0.2,2.4-0.6,2.7-1.8
		l3.3-18.1c0.2-1.2-0.6-2.4-1.8-2.7L81.5,86z M91.9,103.8c-0.5,0.5-1.3,1.5-1.6,1.8c-0.2,0.3-0.6,0.4-1,0.4c-0.1,0-0.3-0.1-0.4-0.2
		c-0.4-0.3-0.5-1-0.2-1.4c0.1-0.1,1.1-1.5,1.9-2.1c0.4-0.4,1.1-0.3,1.4,0.1C92.3,102.8,92.3,103.4,91.9,103.8z"/>
	<path fill="#FFE5EC" d="M83,78.1l18.1,3.3c1.2,0.2,2.4-0.6,2.7-1.8l3.3-18.1c0.2-1.2-0.6-2.4-1.8-2.7l-18.1-3.3
		c-1.2-0.2-2.4,0.6-2.7,1.8l-3.3,18.1C80.9,76.7,81.7,77.9,83,78.1z M91.2,72.9c-0.2,0.5-0.6,0.7-1.1,0.6c-0.1,0-0.1,0-0.2-0.1
		c-0.7-0.3-1.9-0.5-2.3-0.5c-0.5-0.1-0.9-0.6-0.8-1.1c0.1-0.5,0.6-0.9,1.1-0.8c0.2,0,1.8,0.3,2.8,0.7C91.2,71.8,91.4,72.4,91.2,72.9
		z M86.6,66c1-0.5,1.8-0.5,2.3-0.3c0.3,0.2,0.6,0.4,0.7,0.8c0.2,0.5-0.2,1.1-0.7,1.2c-0.3,0.1-0.6,0-0.9-0.1c-0.1,0-0.3,0.1-0.7,0.2
		C87.2,68,87,68,86.8,67.9c-0.3-0.1-0.6-0.3-0.7-0.6C85.8,66.9,86.1,66.3,86.6,66z"/>
</g>
<g>
	<path fill="#FFE5EC" d="M378.5,211.9c0.2-1.2-0.6-2.4-1.8-2.7l-18.1-3.3c-1.2-0.2-2.4,0.6-2.7,1.8l-3.3,18.1
		c-0.2,1.2,0.6,2.4,1.8,2.7l18.1,3.3c1.2,0.2,2.4-0.6,2.7-1.8L378.5,211.9z"/>
	<path fill="#FFE5EC" d="M353.3,233.4l23.6,4.3l-4.5,24.6c-0.1,0.8,0.4,1.6,1.2,1.7c0.8,0.1,1.6-0.4,1.7-1.2l4.5-24.6l24.6,4.5
		c0.8,0.1,1.6-0.4,1.7-1.2c0.1-0.8-0.4-1.6-1.2-1.7l-24.6-4.5l4.5-24.6c0.1-0.8-0.4-1.6-1.2-1.7c-0.8-0.1-1.6,0.4-1.7,1.2l-4.5,24.6
		l-23.6-4.3c-0.8-0.1-1.6,0.4-1.7,1.2C351.9,232.5,352.5,233.3,353.3,233.4z"/>
	<path fill="#FFE5EC" d="M414.6,215.1c-1.1-0.2-2.1,0.5-2.3,1.6l-10,55.1l-52.1-9.5c-1.1-0.2-2.1,0.5-2.3,1.6
		c-0.2,1.1,0.5,2.1,1.6,2.3l54.1,9.9c1.1,0.2,2.1-0.5,2.3-1.6l10.4-57.1C416.4,216.4,415.6,215.3,414.6,215.1z"/>
	<path fill="#FFE5EC" d="M367,262.3c1.2,0.2,2.4-0.6,2.7-1.8l3.3-18.1c0.2-1.2-0.6-2.4-1.8-2.7l-18.1-3.3c-1.2-0.2-2.4,0.6-2.7,1.8
		l-3.3,18.1c-0.2,1.2,0.6,2.4,1.8,2.7L367,262.3z M356.1,242.8c0.6,0.1,1,0.7,0.9,1.3c-0.1,0.6-0.7,1-1.3,0.9
		c-0.6-0.1-1-0.7-0.9-1.3C355,243.1,355.5,242.7,356.1,242.8z"/>
	<path fill="#FFE5EC" d="M383.5,242c-1.2-0.2-2.4,0.6-2.7,1.8l-3.3,18.1c-0.2,1.2,0.6,2.4,1.8,2.7l18.1,3.3c1.2,0.2,2.4-0.6,2.7-1.8
		l3.3-18.1c0.2-1.2-0.6-2.4-1.8-2.7L383.5,242z M393.9,259.8c-0.5,0.5-1.3,1.5-1.6,1.8c-0.2,0.3-0.6,0.4-1,0.4
		c-0.1,0-0.3-0.1-0.4-0.2c-0.4-0.3-0.5-1-0.2-1.4c0.1-0.1,1.1-1.5,1.9-2.1c0.4-0.4,1.1-0.3,1.4,0.1
		C394.3,258.8,394.3,259.4,393.9,259.8z"/>
	<path fill="#FFE5EC" d="M385,234.1l18.1,3.3c1.2,0.2,2.4-0.6,2.7-1.8l3.3-18.1c0.2-1.2-0.6-2.4-1.8-2.7l-18.1-3.3
		c-1.2-0.2-2.4,0.6-2.7,1.8l-3.3,18.1C382.9,232.7,383.7,233.9,385,234.1z M393.2,228.9c-0.2,0.5-0.6,0.7-1.1,0.6
		c-0.1,0-0.1,0-0.2-0.1c-0.7-0.3-1.9-0.5-2.3-0.5c-0.5-0.1-0.9-0.6-0.8-1.1c0.1-0.5,0.6-0.9,1.1-0.8c0.2,0,1.8,0.3,2.8,0.7
		C393.2,227.8,393.4,228.4,393.2,228.9z M388.6,222c1-0.5,1.8-0.5,2.3-0.3c0.3,0.2,0.6,0.4,0.7,0.8c0.2,0.5-0.2,1.1-0.7,1.2
		c-0.3,0.1-0.6,0-0.9-0.1c-0.1,0-0.3,0.1-0.7,0.2c-0.2,0.1-0.4,0.1-0.6,0.1c-0.3-0.1-0.6-0.3-0.7-0.6
		C387.8,222.9,388.1,222.3,388.6,222z"/>
</g>
<g>
	<path fill="#FFE5EC" d="M233.5,357.9c0.2-1.2-0.6-2.4-1.8-2.7l-18.1-3.3c-1.2-0.2-2.4,0.6-2.7,1.8l-3.3,18.1
		c-0.2,1.2,0.6,2.4,1.8,2.7l18.1,3.3c1.2,0.2,2.4-0.6,2.7-1.8L233.5,357.9z"/>
	<path fill="#FFE5EC" d="M208.3,379.4l23.6,4.3l-4.5,24.6c-0.1,0.8,0.4,1.6,1.2,1.7c0.8,0.1,1.6-0.4,1.7-1.2l4.5-24.6l24.6,4.5
		c0.8,0.1,1.6-0.4,1.7-1.2c0.1-0.8-0.4-1.6-1.2-1.7l-24.6-4.5l4.5-24.6c0.1-0.8-0.4-1.6-1.2-1.7c-0.8-0.1-1.6,0.4-1.7,1.2l-4.5,24.6
		l-23.6-4.3c-0.8-0.1-1.6,0.4-1.7,1.2C206.9,378.5,207.5,379.3,208.3,379.4z"/>
	<path fill="#FFE5EC" d="M269.6,361.1c-1.1-0.2-2.1,0.5-2.3,1.6l-10,55.1l-52.1-9.5c-1.1-0.2-2.1,0.5-2.3,1.6s0.5,2.1,1.6,2.3
		l54.1,9.9c1.1,0.2,2.1-0.5,2.3-1.6l10.4-57.1C271.4,362.4,270.6,361.3,269.6,361.1z"/>
	<path fill="#FFE5EC" d="M222,408.3c1.2,0.2,2.4-0.6,2.7-1.8l3.3-18.1c0.2-1.2-0.6-2.4-1.8-2.7l-18.1-3.3c-1.2-0.2-2.4,0.6-2.7,1.8
		l-3.3,18.1c-0.2,1.2,0.6,2.4,1.8,2.7L222,408.3z M211.1,388.8c0.6,0.1,1,0.7,0.9,1.3s-0.7,1-1.3,0.9s-1-0.7-0.9-1.3
		S210.5,388.7,211.1,388.8z"/>
	<path fill="#FFE5EC" d="M238.5,388c-1.2-0.2-2.4,0.6-2.7,1.8l-3.3,18.1c-0.2,1.2,0.6,2.4,1.8,2.7l18.1,3.3c1.2,0.2,2.4-0.6,2.7-1.8
		l3.3-18.1c0.2-1.2-0.6-2.4-1.8-2.7L238.5,388z M248.9,405.8c-0.5,0.5-1.3,1.5-1.6,1.8c-0.2,0.3-0.6,0.4-1,0.4
		c-0.1,0-0.3-0.1-0.4-0.2c-0.4-0.3-0.5-1-0.2-1.4c0.1-0.1,1.1-1.5,1.9-2.1c0.4-0.4,1.1-0.3,1.4,0.1
		C249.3,404.8,249.3,405.4,248.9,405.8z"/>
	<path fill="#FFE5EC" d="M240,380.1l18.1,3.3c1.2,0.2,2.4-0.6,2.7-1.8l3.3-18.1c0.2-1.2-0.6-2.4-1.8-2.7l-18.1-3.3
		c-1.2-0.2-2.4,0.6-2.7,1.8l-3.3,18.1C237.9,378.7,238.7,379.9,240,380.1z M248.2,374.9c-0.2,0.5-0.6,0.7-1.1,0.6
		c-0.1,0-0.1,0-0.2-0.1c-0.7-0.3-1.9-0.5-2.3-0.5c-0.5-0.1-0.9-0.6-0.8-1.1c0.1-0.5,0.6-0.9,1.1-0.8c0.2,0,1.8,0.3,2.8,0.7
		C248.2,373.8,248.4,374.4,248.2,374.9z M243.6,368c1-0.5,1.8-0.5,2.3-0.3c0.3,0.2,0.6,0.4,0.7,0.8c0.2,0.5-0.2,1.1-0.7,1.2
		c-0.3,0.1-0.6,0-0.9-0.1c-0.1,0-0.3,0.1-0.7,0.2c-0.2,0.1-0.4,0.1-0.6,0.1c-0.3-0.1-0.6-0.3-0.7-0.6
		C242.8,368.9,243.1,368.3,243.6,368z"/>
</g>
<g>
	<path fill="#FFE5EC" d="M258.3,57.2L258.3,57.2L258.3,57.2c-4-3.7-16.4,3-22.3,6.2c-0.8,0.4-1.4,0.7-2,1
		c-4.7,2.5-10.1,3.1-14.4,3.5c-2.4,0.2-4.7,0.5-5.7,1c-7.5,3.5-19,11.8-11.8,27.9c1.1,2.5,2.6,4.6,4.4,6.3c4,3.7,9.6,5.4,16.3,4.9
		c11.8-0.9,24.8-8.1,33.2-18.6C267,75.8,265,63.4,258.3,57.2z M210.6,79.3c-0.3,0-0.6-0.1-0.8-0.3s-0.4-0.5-0.4-0.8l0-0.8
		c0-0.6,0.5-1.2,1.1-1.2s1.2,0.5,1.2,1.1l0,0.8C211.8,78.8,211.3,79.3,210.6,79.3z M216,76.4c-0.4,0-0.7-0.1-0.9-0.3
		c-0.2-0.2-0.3-0.4-0.4-0.7c-0.1-0.5,0.3-1.1,0.8-1.2c0-0.1-0.1-0.2-0.1-0.3c-0.3-0.6,0-1.3,0.6-1.6c0.6-0.3,1.3,0,1.6,0.6
		c0.4,1,0.5,1.8,0.1,2.5C217.1,76.3,216.2,76.4,216,76.4z M232.2,94.3C232.2,94.3,232.2,94.2,232.2,94.3c-0.5-0.5-0.6-1.2-0.2-1.7
		c8.5-10.2,3.9-18.8,2.8-19.8c-0.5-0.4-0.6-1-0.3-1.6c0.3-0.6,1.1-0.7,1.6-0.4c0.9,0.5,2.4,3.2,3,6.6c0.6,3.9,0.3,10-5.3,16.7
		C233.4,94.6,232.7,94.7,232.2,94.3z M247.5,87.8c-0.1-0.1-0.3-0.1-0.4-0.2c-0.3-0.3-0.5-0.8-0.3-1.3c2.5-6.3-1.7-12.3-1.8-12.4
		c-0.4-0.5-0.3-1.3,0.3-1.6c0.5-0.4,1.3-0.3,1.6,0.3c0.2,0.3,5,7.1,2.1,14.6C248.8,87.7,248.1,88,247.5,87.8z M255.8,79.4
		c-0.3,0-0.6-0.1-0.8-0.3c-0.2-0.2-0.4-0.5-0.4-0.8c-0.1-1.7-2.3-7.5-5.6-11.7c-0.4-0.5-0.3-1.2,0.2-1.6c0.5-0.4,1.2-0.3,1.6,0.2
		c3.3,4.1,6,10.4,6.1,13C256.9,78.8,256.4,79.4,255.8,79.4z"/>
	<path fill="#FFE5EC" d="M264.5,52.4c-12.1-10.7-24.8,5.6-37.6,7.7c-12.9,2.1-26.9,3.6-34.3,22.8c-7.3,19.2,14.7,42.5,39.2,36.2
		C254.9,113.2,288,73.2,264.5,52.4z M204.8,104.9c-2-1.9-3.7-4.2-5-7.1c-9.1-20.4,9.2-29.2,12.9-31c3.6-1.7,12.9-0.6,20-4.4
		c7.1-3.8,21.3-12.3,27-7.1c0,0,0.1,0.1,0.1,0.1c7.5,6.9,9.9,20.7-2.1,35.5C243.7,108.5,217.7,116.8,204.8,104.9z"/>
</g>
<g>
	<path fill="#FFE5EC" d="M107.6,214.7L107.6,214.7L107.6,214.7c-4-3.7-16.4,3-22.3,6.2c-0.8,0.4-1.4,0.7-2,1
		c-4.7,2.5-10.1,3.1-14.4,3.5c-2.4,0.2-4.7,0.5-5.7,1c-7.5,3.5-19,11.8-11.8,27.9c1.1,2.5,2.6,4.6,4.4,6.3c4,3.7,9.6,5.4,16.3,4.9
		c11.8-0.9,24.8-8.1,33.2-18.6C116.3,233.2,114.3,220.9,107.6,214.7z M59.9,236.8c-0.3,0-0.6-0.1-0.8-0.3s-0.4-0.5-0.4-0.8l0-0.8
		c0-0.6,0.5-1.2,1.1-1.2s1.2,0.5,1.2,1.1l0,0.8C61.1,236.3,60.6,236.8,59.9,236.8z M65.3,233.9c-0.4,0-0.7-0.1-0.9-0.3
		c-0.2-0.2-0.3-0.4-0.4-0.7c-0.1-0.5,0.3-1.1,0.8-1.2c0-0.1-0.1-0.2-0.1-0.3c-0.3-0.6,0-1.3,0.6-1.6c0.6-0.3,1.3,0,1.6,0.6
		c0.4,1,0.5,1.8,0.1,2.5C66.4,233.8,65.5,233.9,65.3,233.9z M81.5,251.8C81.5,251.7,81.4,251.7,81.5,251.8c-0.5-0.5-0.6-1.2-0.2-1.7
		c8.5-10.2,3.9-18.8,2.8-19.8c-0.5-0.4-0.6-1-0.3-1.6c0.3-0.6,1.1-0.7,1.6-0.4c0.9,0.5,2.4,3.2,3,6.6c0.6,3.9,0.3,10-5.3,16.7
		C82.7,252.1,82,252.2,81.5,251.8z M96.7,245.3c-0.1-0.1-0.3-0.1-0.4-0.2c-0.3-0.3-0.5-0.8-0.3-1.3c2.5-6.3-1.7-12.3-1.8-12.4
		c-0.4-0.5-0.3-1.3,0.3-1.6c0.5-0.4,1.3-0.3,1.6,0.3c0.2,0.3,5,7.1,2.1,14.6C98,245.2,97.3,245.5,96.7,245.3z M105,236.9
		c-0.3,0-0.6-0.1-0.8-0.3c-0.2-0.2-0.4-0.5-0.4-0.8c-0.1-1.7-2.3-7.5-5.6-11.7c-0.4-0.5-0.3-1.2,0.2-1.6c0.5-0.4,1.2-0.3,1.6,0.2
		c3.3,4.1,6,10.4,6.1,13C106.2,236.3,105.7,236.9,105,236.9z"/>
	<path fill="#FFE5EC" d="M113.7,209.9c-12.1-10.7-24.8,5.6-37.6,7.7c-12.9,2.1-26.9,3.6-34.3,22.8c-7.3,19.2,14.7,42.5,39.2,36.2
		C104.1,270.7,137.2,230.6,113.7,209.9z M54.1,262.4c-2-1.9-3.7-4.2-5-7.1c-9.1-20.4,9.2-29.2,12.9-31c3.6-1.7,12.9-0.6,20-4.4
		c7.1-3.8,21.3-12.3,27-7.1c0,0,0.1,0.1,0.1,0.1c7.5,6.9,9.9,20.7-2.1,35.5C92.9,266,67,274.3,54.1,262.4z"/>
</g>
<g>
	<path fill="#FFE5EC" d="M409.6,360.7L409.6,360.7L409.6,360.7c-4-3.7-16.4,3-22.3,6.2c-0.8,0.4-1.4,0.7-2,1
		c-4.7,2.5-10.1,3.1-14.4,3.5c-2.4,0.2-4.7,0.5-5.7,1c-7.5,3.5-19,11.8-11.8,27.9c1.1,2.5,2.6,4.6,4.4,6.3c4,3.7,9.6,5.4,16.3,4.9
		c11.8-0.9,24.8-8.1,33.2-18.6C418.3,379.2,416.3,366.9,409.6,360.7z M361.9,382.8c-0.3,0-0.6-0.1-0.8-0.3c-0.2-0.2-0.4-0.5-0.4-0.8
		l0-0.8c0-0.6,0.5-1.2,1.1-1.2c0.6,0,1.2,0.5,1.2,1.1l0,0.8C363.1,382.3,362.6,382.8,361.9,382.8z M367.3,379.9
		c-0.4,0-0.7-0.1-0.9-0.3c-0.2-0.2-0.3-0.4-0.4-0.7c-0.1-0.5,0.3-1.1,0.8-1.2c0-0.1-0.1-0.2-0.1-0.3c-0.3-0.6,0-1.3,0.6-1.6
		c0.6-0.3,1.3,0,1.6,0.6c0.4,1,0.5,1.8,0.1,2.5C368.4,379.8,367.5,379.9,367.3,379.9z M383.5,397.8
		C383.5,397.7,383.4,397.7,383.5,397.8c-0.5-0.5-0.6-1.2-0.2-1.7c8.5-10.2,3.9-18.8,2.8-19.8c-0.5-0.4-0.6-1-0.3-1.6
		c0.3-0.6,1.1-0.7,1.6-0.4c0.9,0.5,2.4,3.2,3,6.6c0.6,3.9,0.3,10-5.3,16.7C384.7,398.1,384,398.2,383.5,397.8z M398.7,391.3
		c-0.1-0.1-0.3-0.1-0.4-0.2c-0.3-0.3-0.5-0.8-0.3-1.3c2.5-6.3-1.7-12.3-1.8-12.4c-0.4-0.5-0.3-1.3,0.3-1.6c0.5-0.4,1.3-0.3,1.6,0.3
		c0.2,0.3,5,7.1,2.1,14.6C400,391.2,399.3,391.5,398.7,391.3z M407,382.9c-0.3,0-0.6-0.1-0.8-0.3c-0.2-0.2-0.4-0.5-0.4-0.8
		c-0.1-1.7-2.3-7.5-5.6-11.7c-0.4-0.5-0.3-1.2,0.2-1.6c0.5-0.4,1.2-0.3,1.6,0.2c3.3,4.1,6,10.4,6.1,13
		C408.2,382.3,407.7,382.9,407,382.9z"/>
	<path fill="#FFE5EC" d="M415.7,355.9c-12.1-10.7-24.8,5.6-37.6,7.7c-12.9,2.1-26.9,3.6-34.3,22.8c-7.3,19.2,14.7,42.5,39.2,36.2
		C406.1,416.7,439.2,376.6,415.7,355.9z M356.1,408.4c-2-1.9-3.7-4.2-5-7.1c-9.1-20.4,9.2-29.2,12.9-31c3.6-1.7,12.9-0.6,20-4.4
		c7.1-3.8,21.3-12.3,27-7.1c0,0,0.1,0.1,0.1,0.1c7.5,6.9,9.9,20.7-2.1,35.5C394.9,412,369,420.3,356.1,408.4z"/>
</g>
<path fill="#FFE5EC" d="M260.2,242.1c2-16.4,0.8-34.3,0-36.3c-0.8-2-12.8-10.4-33.5-5.2c-20.7,5.2-24.3,17.2-24.3,17.2
	c4.8,30.2,11.8,49.2,34.5,44.8c0.8,1.4,1,3.6-0.6,4.3c-7.9,0.1-14.4,2-16,5.1c-2.6,5.2,33.6,6.2,35.1-3.2c0.7-6.3-13.1-2.8-13.1-2.8
	s-1.3-2.2-0.4-4.4C247.3,259.2,258.2,258.5,260.2,242.1z M251.8,252.8c-0.5,1.2-1.7,2.5-2.8,2.1c-1.1-0.4-2.8-1.5-1.8-3.2
	c1-1.7,0.9-2.3,2.8-2.2C252.1,249.7,252.2,251.7,251.8,252.8z M248.8,246.1c-1.4-0.6-2.2-1.6-1.4-4.5c0,0,1.4-2.1,2.7-2.1
	c1.3,0,2.8,1.1,2.9,3.7C253.2,245.9,250.2,246.7,248.8,246.1z M256.5,249.3c-0.8,0.7-1.9,0.7-1.9,0.7c-1.3-0.4-1.8-1.6-1.9-2.6
	c0-1,2.1-2.6,2.9-1.4C256.5,247.1,257.4,248.6,256.5,249.3z M256.8,238.8c-1.6,1.3-3.1-0.1-3.5-1.3c-0.4-1.2-0.4-3,0.7-3.5
	c1.1-0.4,3.1-0.7,3.5,1.2C257.9,237.2,258.4,237.6,256.8,238.8z M204.9,217.6c0.5-0.5,1.2-0.5,1.7-0.1c4.2,4,27.3,11.7,49.3-9.4
	c0.5-0.5,1.2-0.4,1.7,0c0.5,0.5,0.4,1.2,0,1.7c-11.8,11.3-24,14.7-33.8,14.7c-9.4,0-16.5-3.1-18.8-5.2
	C204.5,218.8,204.5,218.1,204.9,217.6z M239.9,240.3c0,0-0.4-2.5,0.5-3.4c0.9-0.9,2.8-1.1,4.7,0.7c1.9,1.8,0.3,4.5-1.1,5
	C242.6,243.2,241.3,243,239.9,240.3z M239,246.8c-1.1,1-2.4,1.3-4.6-0.7c0,0-1.2-2.2-0.7-3.3c0.6-1.2,2.2-2,4.6-1
	C240.7,242.8,240.1,245.8,239,246.8z M217.8,249.7c-1.4,0.6-2.6,0.4-4.1-2.1c0,0-0.5-2.4,0.4-3.4c0.9-0.9,2.7-1.2,4.7,0.5
	C220.7,246.5,219.2,249.2,217.8,249.7z M222.3,256.4c-1.5-0.3-3.3,0.4-3.6-1.4c-0.3-1.8,0.5-3.7,1.7-4c2.1-0.6,4.3,0.6,4.4,2.1
	S223.8,256.7,222.3,256.4z M222,246.1c-1.2-1.7,0.3-3.1,1.5-3.4s3.1-0.2,3.4,0.9s0.5,3.1-1.4,3.4C223.6,247.3,223.1,247.8,222,246.1
	z M229.2,260.5c-1.2-0.1-3-0.8-2.9-2c0-1.1,0.5-3.1,2.5-2.8c1.9,0.4,2.5,0.1,3,2C232.3,259.8,230.5,260.6,229.2,260.5z M233.8,251.2
	c-0.5,2.6-3.6,2.6-4.8,1.7s-1.7-2.1-0.2-4.7c0,0,1.9-1.7,3.1-1.4C233.1,247.2,234.3,248.6,233.8,251.2z M240.1,256.7
	c-0.9,1.2-1.1,3.1-2.8,2.6c-1.7-0.5-3.1-2.1-2.9-3.3c0.4-2.1,2.4-3.6,3.8-3.1C239.5,253.5,241,255.5,240.1,256.7z M240.6,247.6
	c1.2-1.8,3.7-2.3,4.7-1.2c1,1.1,1.6,3.5,0.2,4.2c-1.3,0.7-2.3,2.4-3.7,1.2C240.5,250.6,239.9,248.6,240.6,247.6z"/>
<path fill="#FFE5EC" d="M110.9,392.2c2-16.4,0.8-34.3,0-36.3c-0.8-2-12.8-10.4-33.5-5.2C56.6,355.9,53,367.9,53,367.9
	c4.8,30.2,11.8,49.2,34.5,44.8c0.8,1.4,1,3.6-0.6,4.3c-7.9,0.1-14.4,2-16,5.1c-2.6,5.2,33.6,6.2,35.1-3.2c0.7-6.3-13.1-2.8-13.1-2.8
	s-1.3-2.2-0.4-4.4C98.1,409.3,108.9,408.6,110.9,392.2z M102.5,402.9c-0.5,1.2-1.7,2.5-2.8,2.1c-1.1-0.4-2.8-1.5-1.8-3.2
	c1-1.7,0.9-2.3,2.8-2.2C102.8,399.7,103,401.7,102.5,402.9z M99.5,396.2c-1.4-0.6-2.2-1.6-1.4-4.5c0,0,1.4-2.1,2.7-2.1
	c1.3,0,2.8,1.1,2.9,3.7C103.9,395.9,100.9,396.8,99.5,396.2z M107.3,399.4c-0.8,0.7-1.9,0.7-1.9,0.7c-1.3-0.4-1.8-1.6-1.9-2.6
	c0-1,2.1-2.6,2.9-1.4C107.2,397.2,108.1,398.7,107.3,399.4z M107.6,388.9c-1.6,1.3-3.1-0.1-3.5-1.3c-0.4-1.2-0.4-3,0.7-3.5
	c1.1-0.4,3.1-0.7,3.5,1.2C108.7,387.3,109.1,387.7,107.6,388.9z M55.7,367.7c0.5-0.5,1.2-0.5,1.7-0.1c4.2,4,27.3,11.7,49.3-9.4
	c0.5-0.5,1.2-0.4,1.7,0c0.5,0.5,0.4,1.2,0,1.7c-11.8,11.3-24,14.7-33.8,14.7c-9.4,0-16.5-3.1-18.8-5.2
	C55.3,368.9,55.2,368.1,55.7,367.7z M90.7,390.4c0,0-0.4-2.5,0.5-3.4c0.9-0.9,2.8-1.1,4.7,0.7c1.9,1.8,0.3,4.5-1.1,5
	C93.3,393.2,92.1,393,90.7,390.4z M89.7,396.9c-1.1,1-2.4,1.3-4.6-0.7c0,0-1.2-2.2-0.7-3.3c0.6-1.2,2.2-2,4.6-1
	C91.5,392.9,90.9,395.9,89.7,396.9z M68.5,399.8c-1.4,0.6-2.6,0.4-4.1-2.1c0,0-0.5-2.4,0.4-3.4c0.9-0.9,2.7-1.2,4.7,0.5
	C71.4,396.5,69.9,399.2,68.5,399.8z M73.1,406.4c-1.5-0.3-3.3,0.4-3.6-1.4s0.5-3.7,1.7-4c2.1-0.6,4.3,0.6,4.4,2.1
	S74.6,406.7,73.1,406.4z M72.8,396.2c-1.2-1.7,0.3-3.1,1.5-3.4c1.2-0.3,3.1-0.2,3.4,0.9c0.3,1.1,0.5,3.1-1.4,3.4
	C74.3,397.4,73.9,397.8,72.8,396.2z M80,410.6c-1.2-0.1-3-0.8-2.9-2c0-1.1,0.5-3.1,2.5-2.8c1.9,0.4,2.5,0.1,3,2
	C83.1,409.9,81.2,410.6,80,410.6z M84.5,401.2c-0.5,2.6-3.6,2.6-4.8,1.7c-1.2-0.9-1.7-2.1-0.2-4.7c0,0,1.9-1.7,3.1-1.4
	C83.8,397.2,85,398.7,84.5,401.2z M90.8,406.8c-0.9,1.2-1.1,3.1-2.8,2.6c-1.7-0.5-3.1-2.1-2.9-3.3c0.4-2.1,2.4-3.6,3.8-3.1
	C90.3,403.6,91.7,405.5,90.8,406.8z M91.3,397.7c1.2-1.8,3.7-2.3,4.7-1.2c1,1.1,1.6,3.5,0.2,4.2c-1.3,0.7-2.3,2.4-3.7,1.2
	C91.2,400.7,90.6,398.7,91.3,397.7z"/>
<path fill="#FFE5EC" d="M415.4,90.3c2-16.4,0.8-34.3,0-36.3c-0.8-2-12.8-10.4-33.5-5.2C361.1,54,357.5,66,357.5,66
	c4.8,30.2,11.8,49.2,34.5,44.8c0.8,1.4,1,3.6-0.6,4.3c-7.9,0.1-14.4,2-16,5.1c-2.6,5.2,33.6,6.2,35.1-3.2c0.7-6.3-13.1-2.8-13.1-2.8
	s-1.3-2.2-0.4-4.4C402.5,107.4,413.4,106.6,415.4,90.3z M407,101c-0.5,1.2-1.7,2.5-2.8,2.1c-1.1-0.4-2.8-1.5-1.8-3.2
	c1-1.7,0.9-2.3,2.8-2.2C407.3,97.8,407.4,99.8,407,101z M404,94.3c-1.4-0.6-2.2-1.6-1.4-4.5c0,0,1.4-2.1,2.7-2.1
	c1.3,0,2.8,1.1,2.9,3.7C408.4,94,405.4,94.9,404,94.3z M411.7,97.5c-0.8,0.7-1.9,0.7-1.9,0.7c-1.3-0.4-1.8-1.6-1.9-2.6
	s2.1-2.6,2.9-1.4C411.7,95.3,412.6,96.8,411.7,97.5z M412,87c-1.6,1.3-3.1-0.1-3.5-1.3c-0.4-1.2-0.4-3,0.7-3.5
	c1.1-0.4,3.1-0.7,3.5,1.2C413.1,85.4,413.6,85.8,412,87z M360.1,65.7c0.5-0.5,1.2-0.5,1.7-0.1c4.2,4,27.3,11.7,49.3-9.4
	c0.5-0.5,1.2-0.4,1.7,0c0.5,0.5,0.4,1.2,0,1.7c-11.8,11.3-24,14.7-33.8,14.7c-9.4,0-16.5-3.1-18.8-5.2
	C359.7,67,359.7,66.2,360.1,65.7z M395.1,88.5c0,0-0.4-2.5,0.5-3.4c0.9-0.9,2.8-1.1,4.7,0.7c1.9,1.8,0.3,4.5-1.1,5
	C397.8,91.3,396.5,91.1,395.1,88.5z M394.2,95c-1.1,1-2.4,1.3-4.6-0.7c0,0-1.2-2.2-0.7-3.3c0.6-1.2,2.2-2,4.6-1
	C395.9,91,395.3,94,394.2,95z M373,97.9c-1.4,0.6-2.6,0.4-4.1-2.1c0,0-0.5-2.4,0.4-3.4c0.9-0.9,2.7-1.2,4.7,0.5S374.4,97.3,373,97.9
	z M377.5,104.5c-1.5-0.3-3.3,0.4-3.6-1.4c-0.3-1.8,0.5-3.7,1.7-4c2.1-0.6,4.3,0.6,4.4,2.1C380.1,102.6,379,104.8,377.5,104.5z
	 M377.2,94.3c-1.2-1.7,0.3-3.1,1.5-3.4c1.2-0.3,3.1-0.2,3.4,0.9c0.3,1.1,0.5,3.1-1.4,3.4S378.4,95.9,377.2,94.3z M384.4,108.6
	c-1.2-0.1-3-0.8-2.9-2c0-1.1,0.5-3.1,2.5-2.8c1.9,0.4,2.5,0.1,3,2C387.5,107.9,385.7,108.7,384.4,108.6z M389,99.3
	c-0.5,2.6-3.6,2.6-4.8,1.7c-1.2-0.9-1.7-2.1-0.2-4.7c0,0,1.9-1.7,3.1-1.4C388.3,95.3,389.5,96.8,389,99.3z M395.3,104.8
	c-0.9,1.2-1.1,3.1-2.8,2.6c-1.7-0.5-3.1-2.1-2.9-3.3c0.4-2.1,2.4-3.6,3.8-3.1C394.7,101.7,396.2,103.6,395.3,104.8z M395.8,95.7
	c1.2-1.8,3.7-2.3,4.7-1.2c1,1.1,1.6,3.5,0.2,4.2c-1.3,0.7-2.3,2.4-3.7,1.2C395.7,98.8,395.1,96.8,395.8,95.7z"/>
</svg>
