<svg xmlns="http://www.w3.org/2000/svg" xmlns:xlink="http://www.w3.org/1999/xlink" width="90" height="92" viewBox="0 0 90 92">
  <defs>
    <filter id="Path_4" x="0" y="0" width="90" height="92" filterUnits="userSpaceOnUse">
      <feOffset dy="2" input="SourceAlpha"/>
      <feGaussianBlur result="blur"/>
      <feFlood flood-color="#ffc6e0"/>
      <feComposite operator="in" in2="blur"/>
      <feComposite in="SourceGraphic"/>
    </filter>
  </defs>
  <g transform="matrix(1, 0, 0, 1, 0, 0)" filter="url(#Path_4)">
    <path id="Path_4-2" data-name="Path 4" d="M-725.268,1061.5a2.47,2.47,0,0,1,2.225-.282c1.4.461,1.492,1.922.331,5.067-.568,1.54-.631,1.613-1.374,1.613-.526,0-.779-.114-.779-.351a15.627,15.627,0,0,0-.608-2.21c-.706-2.161-.637-3.434.205-3.837Zm-34.708,38.353a15.705,15.705,0,0,0,2.21.608c.237,0,.351.253.351.778,0,.743-.074.806-1.613,1.374-3.146,1.161-4.607,1.065-5.068-.331a2.467,2.467,0,0,1,.283-2.224c.4-.843,1.675-.911,3.836-.2Zm27.747-31.169a1.7,1.7,0,0,1-.711-1.47c-.141-1.906,1.9-3.043,3.729-2.083a11.584,11.584,0,0,1,1.947,1.7c1.083,1.129,1.238,1.394.923,1.571a1.446,1.446,0,0,0-.53.813c-.136.538-.267.6-1.282.584a8.223,8.223,0,0,1-4.076-1.111Zm-23.31,28.469c.015,1.015-.045,1.146-.584,1.282a1.443,1.443,0,0,0-.813.53c-.177.315-.441.16-1.571-.923a11.551,11.551,0,0,1-1.7-1.947c-.96-1.834.177-3.87,2.083-3.729a1.7,1.7,0,0,1,1.469.711,8.217,8.217,0,0,1,1.111,4.076Zm28.855-23.483c-1.175,1.756-2,2.6-2.907,2.99s-.724.389-1.657-.017c-2.114-.919-.9-3.449,2.235-4.648,1.613-.617,2.269-.63,2.789-.057.38.421.355.514-.46,1.733Zm-26.718,25.457c-.574-.52-.561-1.176.057-2.789,1.2-3.131,3.728-4.348,4.648-2.235.406.934.4.754.018,1.657s-1.234,1.732-2.99,2.907c-1.217.815-1.312.84-1.732.46Zm27.157-29.221c.116-1.02,1.182-1.47,2.26-.955.683.325.8.507.8,1.206a1.972,1.972,0,0,1-.375,1.2C-724.51,1072.306-726.4,1071.285-726.246,1069.9Zm-27.734,31.84a1.972,1.972,0,0,1-1.2.376c-.7,0-.881-.122-1.206-.8-.515-1.079-.065-2.144.955-2.261C-754.048,1098.9-753.026,1100.79-753.98,1101.743ZM-722.5,1079.4a2.24,2.24,0,0,1-2.742-.055c-.66-.73-.544-3.262.28-6.127.047-.166.457-.3.916-.3.955,0,1.01.067,1.758,2.15.714,1.991.632,3.682-.212,4.331Zm-27.756,23.629c-2.083-.748-2.15-.8-2.15-1.758,0-.458.133-.868.3-.916,2.865-.825,5.4-.94,6.127-.28a2.241,2.241,0,0,1,.055,2.743c-.649.843-2.339.926-4.331.211Zm34.806-30.781a2.27,2.27,0,0,1-.862,3.184h0c-1.411.73-2.18.427-4.555-1.791-1.771-1.654-1.822-1.733-1.579-2.429a3.2,3.2,0,0,0,.11-1.42c-.258-1.289,1.483-4.319,3.019-5.256,1.107-.676,2.891-.643,3.384.06,1.311,1.871-.744,4.132-4.727,5.2-1.025.277-1.616.769-1.3,1.085a12.6,12.6,0,0,0,2.161.215c2.57.13,3.879.476,4.349,1.148Zm-38.769,33.276a12.623,12.623,0,0,0-.214-2.161c-.316-.315-.809.276-1.085,1.3-1.073,3.983-3.335,6.037-5.205,4.727-.7-.493-.735-2.277-.06-3.384.937-1.537,3.967-3.277,5.256-3.02a3.209,3.209,0,0,0,1.42-.11c.7-.243.775-.192,2.429,1.579,2.219,2.375,2.521,3.145,1.792,4.555h0a2.269,2.269,0,0,1-3.183.862c-.672-.47-1.018-1.78-1.149-4.349Zm35.851-49.195c-.13.34-1.531.475-1.83.176a1.4,1.4,0,0,1,.055-1.378c.117-.072.275.028.35.225a.779.779,0,0,0,.7.357C-718.4,1055.709-718.193,1055.886-718.363,1056.329Zm-50.649,50.649c-.444.171-.62-.036-.62-.722a.779.779,0,0,0-.357-.7c-.2-.075-.3-.233-.225-.35a1.4,1.4,0,0,1,1.378-.055C-768.538,1105.448-768.673,1106.848-769.013,1106.979Zm.1-50.546a6.667,6.667,0,0,0,1.307.373c.429.072,1.05.188,1.378.259l.6.13-.565.215a10.146,10.146,0,0,1-1.519.221,10.147,10.147,0,0,1-.221,1.519l-.215.565-.13-.6c-.071-.328-.188-.948-.259-1.378A6.656,6.656,0,0,0-768.91,1056.432Zm5.285,5.281q.368-.308.729-.645c2.859-2.671,4.492-3.562,8.746-4.773.789-.224,2.455-.728,3.7-1.118s2.837-.859,3.532-1.041a13.4,13.4,0,0,0,2.21-.814c.686-.35.949-.4.949-.175,0,.342-.824.81-2.987,1.7a87.473,87.473,0,0,0-8.657,4.36c-.951.576-1.771,1.047-1.821,1.047s-1.1.608-2.333,1.349c-.877.527-1.767,1.036-2.661,1.52-.484.893-.992,1.783-1.52,2.66-.742,1.232-1.349,2.282-1.349,2.333s-.471.871-1.048,1.821a87.8,87.8,0,0,0-4.36,8.657c-.889,2.163-1.358,2.987-1.7,2.987-.224,0-.175-.263.174-.948a13.355,13.355,0,0,0,.815-2.21c.182-.694.651-2.283,1.041-3.532s.894-2.914,1.118-3.7c1.21-4.254,2.1-5.887,4.773-8.747.224-.24.44-.484.645-.728Zm2.959,2.964a7.051,7.051,0,0,1,1.788-.744c.077.077-.069.382-.327.677-.139.16-.384.484-.661.868-.384.276-.708.522-.868.66-.3.257-.6.4-.677.327A7.052,7.052,0,0,1-760.666,1064.677Zm1.986,1.967a21.4,21.4,0,0,1,3.863-4.867c.63-.511,1.468-1.226,1.862-1.59a2.446,2.446,0,0,1,1.166-.662c.4,0,.382.081-.182.776a36.886,36.886,0,0,0-3.433,5.316,27.947,27.947,0,0,0-1.2,3.1,27.762,27.762,0,0,0-3.1,1.2,36.825,36.825,0,0,0-5.316,3.432c-.695.564-.776.583-.775.182a2.449,2.449,0,0,1,.662-1.166c.364-.395,1.079-1.232,1.589-1.862a21.427,21.427,0,0,1,4.868-3.863Zm3.7,3.691a9.346,9.346,0,0,1,.653-2.983,6.741,6.741,0,0,1,.843-1.672c.109-.045.236.473.283,1.153.134,1.936,1.24,5.444,2.007,6.365a12.084,12.084,0,0,0,4.914,2.146,3.443,3.443,0,0,0,1.823-.2c1.261-.652.974-1.421-.712-1.9-.931-.266-1.185-.628-1.971-2.823a3.527,3.527,0,0,0-1.969-2.339c-2.347-1.508-2.579-2.657-1.128-5.6.516-1.044,1.134-2.183,1.374-2.53a15.786,15.786,0,0,1,3.283-2.834,4.03,4.03,0,0,1,.008,1.637c-.357,3.625,1.031,6.313,3.358,6.5,1.794.146,2.9-.294,2.616-1.038a.679.679,0,0,0-.582-.412c-.775,0-.953-.564-.907-2.886a10.008,10.008,0,0,0-.289-3.142,1.641,1.641,0,0,1,.051-1.7c.4-.829,1.059-1.284,3.748-2.571,3.167-1.515,8.777-2.585,14.537-2.774,3-.1,4.122-.061,4.122.136,0,.15-.35.272-.778.272-1.674,0-7.545,1.92-9.376,3.067a21.973,21.973,0,0,1-4.874,2.189c-.639,0-1.315-.85-1.085-1.365.17-.38.2-.368.284.111.071.4.257.538.747.538.69,0,1.226-.379,1.226-.866a2.708,2.708,0,0,0-1.845-1.763,3.2,3.2,0,0,0-2.343,1.456,3.155,3.155,0,0,0,.882,2.961,3.53,3.53,0,0,0,.876.605,1.338,1.338,0,0,1,.482.207c.25.158.13.453-.542,1.334a21.623,21.623,0,0,0-2.606,4.942,18.039,18.039,0,0,0-1,7.1,15.985,15.985,0,0,0,4.73,9.647,17.1,17.1,0,0,0,6.626,3.488,29.106,29.106,0,0,0,4.539.336c3.432.01,4.626-.3,8.035-2.1,2.742-1.446,3.847-1.428,4.214.072.251,1.025-1.358,1.41-1.736.415-.488-1.285-1.837-.472-1.571.947a1.875,1.875,0,0,0,2.093,1.563c3.272,0,4.507-3.79,1.785-5.473a3.319,3.319,0,0,0-1.306-.5c-.751,0-.829-.366-.3-1.405a11.054,11.054,0,0,0,.749-2.662,4.751,4.751,0,0,0-.259-3.186,6.11,6.11,0,0,0-3.162-3.644,4.439,4.439,0,0,1-1.135-.7,3.384,3.384,0,0,1,.409-.749,3.766,3.766,0,0,0,.409-1.931c0-1.169-.08-1.377-.772-1.994a2.3,2.3,0,0,0-1.85-.689,4.177,4.177,0,0,0-3.072,1.161,1.866,1.866,0,0,1-.6.511,3.47,3.47,0,0,1-.153-1.374,3.058,3.058,0,0,0-1.6-3.075,3.1,3.1,0,0,0-4.244,2.62,10.09,10.09,0,0,0,.453,2.047c.249.8.375,1.455.28,1.455a2.419,2.419,0,0,1-.751-.631,6.668,6.668,0,0,0-3.417-2,4.488,4.488,0,0,0-3.113,1.637,3.471,3.471,0,0,0-.155,3.312,5.4,5.4,0,0,0,3.948,1.98c.6,0,1.083.082,1.083.183a2.707,2.707,0,0,1-1.135.589c-2.9,1.035-4.11,3.506-2.754,5.6a3.173,3.173,0,0,0,2.41,1.033,4.8,4.8,0,0,0,3.029-1.906c.613-1.185.751-.991.517.731a3.831,3.831,0,0,0,.212,2.629c.586,1.3,1.466,1.738,3.062,1.525a4.03,4.03,0,0,0,1.637-.525c.745-.659,1.208-2.559,1.018-4.188l-.171-1.475.892.784c1.748,1.534,2.83,1.606,4.267.282,1.824-1.682,1.863-3.713.091-4.794-.6-.368-.667-.468-.292-.463a3.67,3.67,0,0,1,2.788,2.307c.9,2.358.339,4.613-1.68,6.807a11.157,11.157,0,0,1-9.668,3.281,14.266,14.266,0,0,1-8.8-3.969,10.338,10.338,0,0,1-2.96-5.123,13.406,13.406,0,0,1-.015-8.405,19.224,19.224,0,0,1,3.793-6.154,22.543,22.543,0,0,1,4.976-3.536,29.78,29.78,0,0,1,4.492-1.815c.719-.158.735-.144.593.564a3.631,3.631,0,0,0,.992,3.275c.8.844.869.869,2.181.76a2.35,2.35,0,0,0,2.029-.864,2.68,2.68,0,0,0,.764-2.743c-.176-.619-.41-.822-1.261-1.093l-1.044-.333.663-.347c1.027-.538,4.525-1.017,7.308-1,3.1.019,3.549.218,2.113.942a13.355,13.355,0,0,0-2.09,1.4,25.89,25.89,0,0,1-4.756,3.272c-.854.42-1.255.761-1.255,1.069,0,.676.739.946,2.582.946a5.769,5.769,0,0,0,3.53-.98c1.03-.54,2.514-1.416,3.3-1.948a13.726,13.726,0,0,1,6.923-2.562,16.768,16.768,0,0,1,5.59,1.116c.786.293,1.157.6.961.73a4.286,4.286,0,0,1,1.444.424h.022c.141,0,.28.008.417.022.787-.091,1.6-.165,2.36-.219a4.312,4.312,0,0,1,.45-1.251,7.628,7.628,0,0,1-1.04-.437,31.48,31.48,0,0,0-3.48-1.458c-3.191-1.089-3.446-1.335-3.469-3.35-.013-1.212-.359-1.657-1.748-2.252-1.049-.45-1.226-.668-1.132-1.391.022-.166-.213-.3-.527-.3-1.115,0-2.385,2.1-1.862,3.074.47.878.327,1.294-.4,1.164-5.956-1.065-8.034-1.409-10.405-1.719a80.169,80.169,0,0,0-13.428-.127l-5.257.573a77.426,77.426,0,0,0-9.8,1.6,68.468,68.468,0,0,1-8.014,1.317,5.025,5.025,0,0,1-4.366-1.57,4.918,4.918,0,0,0-3.408-1.308c-2.128-.224-3.2-.576-3.831-1.259a2.352,2.352,0,0,1-.571-.836c0-.359-1.246-.1-1.5.312-.423.676.063,1.684,1.578,3.269,1.641,1.72,4.638,3.4,6.067,3.4,1.279,0,.906.369-.7.7-3.734.763-6.528.944-7.7.5a12.415,12.415,0,0,1-2.352-1.98c-1.758-1.769-2.211-2.035-4.345-2.545-1.714-.411-2.32-.756-2.865-1.63-.586-.94-1.44-1.236-1.986-.69-.278.278-.337.423-.151,1.068-.646-.186-.79-.127-1.069.151-.547.547-.25,1.4.69,1.985.875.545,1.22,1.151,1.63,2.866.511,2.134.776,2.587,2.545,4.344a12.358,12.358,0,0,1,1.98,2.353c.444,1.168.262,3.962-.5,7.7-.329,1.61-.7,1.982-.7.7,0-1.429-1.679-4.426-3.4-6.067-1.586-1.514-2.594-2-3.269-1.578-.414.259-.672,1.5-.312,1.5a2.359,2.359,0,0,1,.836.57c.682.633,1.034,1.7,1.259,3.831a4.917,4.917,0,0,0,1.308,3.408,5.026,5.026,0,0,1,1.57,4.366,68.469,68.469,0,0,1-1.317,8.014,77.544,77.544,0,0,0-1.6,9.8c-.2,1.839-.458,4.2-.574,5.256a80.169,80.169,0,0,0,.127,13.428c.31,2.371.653,4.449,1.719,10.406.13.728-.286.871-1.164.4-.977-.523-3.073.746-3.073,1.862,0,.314.133.549.3.527.723-.094.941.083,1.391,1.133.595,1.389,1.04,1.734,2.253,1.748,2.014.023,2.261.278,3.35,3.469a31.594,31.594,0,0,0,1.459,3.48,7.7,7.7,0,0,1,.436,1.039,4.333,4.333,0,0,1,1.251-.449c.054-.76.128-1.572.218-2.36-.013-.138-.022-.276-.022-.417v-.022a4.288,4.288,0,0,1-.424-1.445c-.127.2-.437-.174-.729-.96a16.77,16.77,0,0,1-1.117-5.59,13.726,13.726,0,0,1,2.562-6.923c.532-.784,1.409-2.267,1.948-3.3a5.765,5.765,0,0,0,.981-3.53c0-1.843-.271-2.582-.947-2.582-.308,0-.649.4-1.068,1.255a25.987,25.987,0,0,1-3.272,4.756,13.309,13.309,0,0,0-1.4,2.09c-.724,1.437-.924.989-.942-2.113-.017-2.784.461-6.281,1-7.309l.347-.662.333,1.044c.271.851.474,1.085,1.093,1.261a2.68,2.68,0,0,0,2.743-.764,2.348,2.348,0,0,0,.864-2.029c.109-1.312.083-1.385-.76-2.181a3.627,3.627,0,0,0-3.275-.992c-.708.142-.722.126-.564-.593a29.854,29.854,0,0,1,1.815-4.493,22.516,22.516,0,0,1,3.537-4.976,19.213,19.213,0,0,1,6.154-3.793,13.406,13.406,0,0,1,8.405.015,10.331,10.331,0,0,1,5.123,2.96,14.266,14.266,0,0,1,3.969,8.8,11.155,11.155,0,0,1-3.281,9.668c-2.193,2.019-4.449,2.575-6.807,1.68a3.673,3.673,0,0,1-2.307-2.789c-.005-.375.095-.312.463.293,1.081,1.772,3.113,1.733,4.794-.092,1.323-1.436,1.252-2.518-.283-4.266l-.784-.892,1.475.171c1.629.189,3.529-.273,4.188-1.018a4.019,4.019,0,0,0,.525-1.638c.213-1.595-.226-2.475-1.525-3.061a3.83,3.83,0,0,0-2.629-.212c-1.722.233-1.917.1-.731-.518a4.8,4.8,0,0,0,1.906-3.028,3.173,3.173,0,0,0-1.033-2.41c-2.1-1.356-4.566-.141-5.6,2.754a2.707,2.707,0,0,1-.589,1.135c-.1,0-.183-.488-.183-1.083a5.4,5.4,0,0,0-1.979-3.948,3.471,3.471,0,0,0-3.312.155,4.483,4.483,0,0,0-1.637,3.113,6.668,6.668,0,0,0,2,3.417,2.423,2.423,0,0,1,.631.751c0,.095-.655-.032-1.455-.281a10.077,10.077,0,0,0-2.046-.453,3.1,3.1,0,0,0-2.621,4.244,3.058,3.058,0,0,0,3.075,1.6,3.47,3.47,0,0,1,1.374.153,1.864,1.864,0,0,1-.511.6,4.175,4.175,0,0,0-1.161,3.072,2.3,2.3,0,0,0,.69,1.851c.618.691.825.772,2,.772a3.764,3.764,0,0,0,1.93-.409,3.4,3.4,0,0,1,.749-.41,4.426,4.426,0,0,1,.7,1.135,6.108,6.108,0,0,0,3.643,3.163,4.752,4.752,0,0,0,3.186.26,11.074,11.074,0,0,0,2.662-.749c1.039-.53,1.406-.453,1.406.3a3.309,3.309,0,0,0,.5,1.305c1.683,2.723,5.472,1.488,5.472-1.784a1.875,1.875,0,0,0-1.563-2.094c-1.419-.266-2.231,1.083-.946,1.571.995.378.61,1.987-.415,1.736-1.5-.367-1.519-1.472-.072-4.214,1.8-3.409,2.11-4.6,2.1-8.035a29.224,29.224,0,0,0-.335-4.539,17.1,17.1,0,0,0-3.488-6.625,15.983,15.983,0,0,0-9.647-4.73,18.048,18.048,0,0,0-7.1,1,21.654,21.654,0,0,0-4.943,2.606c-.88.672-1.176.792-1.335.542a1.363,1.363,0,0,1-.207-.482,3.542,3.542,0,0,0-.605-.875,3.154,3.154,0,0,0-2.96-.882,3.2,3.2,0,0,0-1.455,2.343,2.71,2.71,0,0,0,1.762,1.845c.487,0,.866-.536.866-1.226,0-.489-.134-.675-.538-.746-.479-.084-.491-.115-.11-.284.514-.23,1.365.446,1.365,1.085a21.94,21.94,0,0,1-2.19,4.874c-1.147,1.832-3.067,7.7-3.067,9.376,0,.428-.122.778-.271.778-.2,0-.235-1.124-.137-4.122.189-5.76,1.259-11.37,2.774-14.537,1.287-2.689,1.742-3.353,2.571-3.748a1.641,1.641,0,0,1,1.7-.051,10.028,10.028,0,0,0,3.142.289c2.322-.045,2.887.132,2.887.907a.68.68,0,0,0,.412.581c.744.286,1.184-.822,1.038-2.616-.189-2.327-2.878-3.715-6.5-3.358a4.029,4.029,0,0,1-1.637-.008,15.764,15.764,0,0,1,2.834-3.282c.347-.24,1.485-.858,2.53-1.374,2.939-1.451,4.088-1.22,5.6,1.128a3.524,3.524,0,0,0,2.339,1.969c2.194.786,2.556,1.04,2.823,1.97.482,1.686,1.251,1.974,1.9.713a3.444,3.444,0,0,0,.2-1.823,12.085,12.085,0,0,0-2.146-4.914c-.921-.767-4.428-1.874-6.365-2.007-.68-.047-1.2-.175-1.153-.284a6.748,6.748,0,0,1,1.672-.843,9.331,9.331,0,0,1,2.983-.653Zm-1.093-1.077c.1-.392.175-.755.2-.9a18.687,18.687,0,0,1,1.353-3.345,15.926,15.926,0,0,0,1.013-1.672c.892-1.6,4.168-5.24,5.166-5.738.373-.186.483-.361.326-.517-.4-.4-4.753,1.909-6.4,3.4a9.162,9.162,0,0,1-1.207.971,46.546,46.546,0,0,0-3.455,4.8,46.618,46.618,0,0,0-4.8,3.455,9.22,9.22,0,0,1-.971,1.207c-1.488,1.649-3.8,6-3.4,6.4.157.157.332.047.517-.326.5-1,4.137-4.274,5.737-5.166a15.945,15.945,0,0,0,1.672-1.013,18.68,18.68,0,0,1,3.345-1.353c.146-.022.509-.1.9-.2Zm-3.344-3.368c1-1.45,2.09-3.03,2.508-3.626l.819-1.166-1.654.916c-.9.5-2.488,1.4-3.539,2.009-.61,1.052-1.51,2.637-2.01,3.539l-.915,1.654,1.165-.818c.6-.419,2.177-1.512,3.627-2.509Zm-2.335-2.344c2.109-1.131,4.6-2.527,7.354-4.123a109.149,109.149,0,0,1,14.638-6.864c1.476-.505,2.874-1.03,3.107-1.165.657-.382-.954-.325-2.684.1-.789.192-2.778.625-4.42.962s-3.255.707-3.584.82-1.565.493-2.748.843-2.365.728-2.628.839-1.553.49-2.867.845a17.863,17.863,0,0,0-8.108,4.54c-.223.221-.438.426-.649.618-.192.211-.4.427-.618.649a17.869,17.869,0,0,0-4.539,8.108c-.353,1.314-.734,2.6-.844,2.867s-.488,1.446-.839,2.628-.73,2.419-.843,2.748-.482,1.941-.82,3.584-.771,3.631-.963,4.42c-.42,1.729-.478,3.341-.1,2.683.135-.232.659-1.63,1.164-3.106a109.093,109.093,0,0,1,6.864-14.638c1.6-2.751,2.993-5.246,4.123-7.355Zm-4.109-4.123.117-.057c1.915-.916,1.564-1.181-.909-.734-.447,2.473-.18,2.824.735.909C-765.9,1059.5-765.882,1059.462-765.862,1059.423Zm-1.246-1.239c1.136-.175,2.369-.4,3.816-.7,2.185-.445,2.612-.877.872-.883a21.73,21.73,0,0,1-6.987-1.562c-2.136-1.073-5.2-4.306-5.177-5.465.009-.453.038-.444.337.105a5.006,5.006,0,0,0,3.133,1.8,6.137,6.137,0,0,1,3.974,2.367c1.36,1.815,2.168,2.133,5.449,2.138a17.8,17.8,0,0,0,5.376-.662c1.446-.367,2.843-.7,3.106-.736a7.988,7.988,0,0,0,2.15-.732c.709-.321.711-.326.12-.369a5.624,5.624,0,0,0-.774-.016c-.1.016-1.279-.143-2.628-.352-2.815-.435-5.585-1.638-6.54-2.839-.315-.4-.752-.91-.971-1.139-.652-.683-.152-.772.7-.124a4.505,4.505,0,0,0,2.574.777,6.794,6.794,0,0,1,4.6,1.846l1.207,1.01,2.293.083c1.956.072,2.98-.057,6.953-.878,9.726-2.008,16.17-2.76,23.369-2.73a79.541,79.541,0,0,1,16.771,2.011c3.315.714,3.823.778,3.823.483,0-.143-.274-.439-.609-.659-1.089-.713-1.627-2.341-1.055-3.2.209-.313.27-.306.482.052a3.563,3.563,0,0,0,1.3.878c1.1.485,1.153.589,1.412,2.534.166,1.256.813,1.788,3.151,2.592,3.127,1.077,4.638,1.69,4.638,1.884,0,.467-1.887.094-4-.791a12.389,12.389,0,0,0-7.2-1.191c-2.538.221-3.615.638-6.362,2.47s-4.638,2.647-6.332,2.74l-1.553.083,1.314-.731a23.573,23.573,0,0,0,3.085-2.26,21.1,21.1,0,0,1,3.464-2.387c1.6-.813,1.821-.859,4.083-.865,2.044-.006,2.329-.053,1.969-.326-.58-.44-5.872-.956-9.559-.933-5.04.033-7.657.746-9.013,2.459-.96,1.21-.94,2.45.049,3.186.593.441.734.455,1.619.162a1.46,1.46,0,0,0,1.1-2.031c-.125-.494-.294-.6-.982-.6-.564,0-.832-.11-.832-.343,0-.291.156-.3,1.013-.05,1.294.374,1.639,1.149,1.059,2.372-.417.879-.918,1.118-2.351,1.124-.749,0-.953-.121-1.4-.849a3.254,3.254,0,0,1,.151-3.473q1.161-1.284-2.372-.178c-7.185,2.25-11.4,6.02-13.553,12.122a10.975,10.975,0,0,0-.513,7.115,22.608,22.608,0,0,0,.986,3.025,6,6,0,0,1,.5,1.413,10.793,10.793,0,0,0,1.771,2.223,11.052,11.052,0,0,0,3.525,2.777,11.481,11.481,0,0,0,4.859,1.655c3.731.552,6.254.195,9.031-1.279,3.734-1.981,5.575-6.021,4.34-9.522a4.071,4.071,0,0,0-3-2.761c-1.481-.461-1.819-.8-.8-.8,1.552,0,3.882,1.926,4.4,3.64.664,2.177-.047,5.5-1.445,6.769-.845.765-.581,1.059.953,1.059,1.276,0,1.471.069,2.014.716.811.964.973,1.576.632,2.4a1.7,1.7,0,0,1-1.1.957c-1.258.415-1.523.127-.409-.444,1.277-.655,1.479-1.263.763-2.307-.945-1.38-2.35-1.3-5.275.292a14.143,14.143,0,0,1-9.509,1.811,18.125,18.125,0,0,1-6.331-2.151,8.495,8.495,0,0,1-2.987-2.392c-.723-.851-1.422-1.673-1.554-1.827a24.258,24.258,0,0,1-1.413-3.624,16.791,16.791,0,0,1-.574-5.36c.091-2.187.155-2.415,1.47-5.284a13.871,13.871,0,0,1,2.685-4.372c1.351-1.417,1.466-1.962.373-1.752-.582.111-1.943-.454-1.943-.807a2.281,2.281,0,0,0-.463-.684,1.075,1.075,0,0,1-.315-.921c.119-.309.171-.319.26-.051a2.2,2.2,0,0,0,.317.585c.113.137.437.557.719.933.45.6.628.668,1.443.559a18.428,18.428,0,0,0,3.805-1.728,28.977,28.977,0,0,1,9.048-3.386,5.51,5.51,0,0,0,1.553-.315c.427-.321,2.814-.561,5.137-.515,2.078.04,3.2-.182,2.824-.558-.325-.326-5.366-.659-10.231-.678a44.352,44.352,0,0,0-12.307,1.3c-5.594,1.312-9.264,3.909-8.883,6.284.066.409.234,1.175.374,1.7a11.03,11.03,0,0,1,.107,2.927c-.166,2.225-.387,2.415-1.506,1.295a5.194,5.194,0,0,1-1.2-3.769A4.809,4.809,0,0,1-743.5,1056c1.4-1.49.559-1.44-2.152.13a12.261,12.261,0,0,0-4.935,5.121c-1.809,3.423-1.715,5.655.3,7.066a5.966,5.966,0,0,1,2.674,3.228,8.109,8.109,0,0,0,.912,1.85c.533.59.265.728-.836.432a6.147,6.147,0,0,1-3.429-2.855c-1.506-2.636-1.839-6.573-.725-8.581.579-1.044.539-1.615-.069-.989a43.8,43.8,0,0,0-3.619,6.74,7,7,0,0,0-.262,1.507,7,7,0,0,0-1.507.262,43.869,43.869,0,0,0-6.74,3.619c-.627.608-.056.648.989.069,2.008-1.113,5.945-.781,8.581.725a6.151,6.151,0,0,1,2.855,3.43c.3,1.1.159,1.37-.432.837a8.081,8.081,0,0,0-1.85-.913,5.961,5.961,0,0,1-3.228-2.674c-1.411-2.014-3.643-2.108-7.066-.3a12.26,12.26,0,0,0-5.121,4.935c-1.569,2.711-1.62,3.553-.13,2.152a4.805,4.805,0,0,1,3.571-1.225,5.191,5.191,0,0,1,3.769,1.2c1.12,1.119.93,1.34-1.295,1.506a11.041,11.041,0,0,1-2.927-.106c-.526-.139-1.291-.307-1.7-.374-2.375-.381-4.971,3.289-6.283,8.883a44.368,44.368,0,0,0-1.3,12.307c.019,4.865.352,9.906.678,10.231.376.377.6-.746.558-2.824-.045-2.323.194-4.71.515-5.137a5.531,5.531,0,0,0,.315-1.553A28.993,28.993,0,0,1-770,1095.65a18.437,18.437,0,0,0,1.728-3.806c.109-.815.04-.992-.559-1.443-.376-.282-.8-.605-.933-.719a2.187,2.187,0,0,0-.585-.317c-.268-.089-.258-.142.051-.26a1.075,1.075,0,0,1,.921.315,2.282,2.282,0,0,0,.684.463c.353,0,.919,1.361.807,1.943-.209,1.094.335.978,1.752-.373a13.871,13.871,0,0,1,4.372-2.685c2.869-1.315,3.1-1.379,5.284-1.47a16.772,16.772,0,0,1,5.36.575,24.186,24.186,0,0,1,3.624,1.412c.154.132.975.831,1.827,1.554a8.491,8.491,0,0,1,2.392,2.987,18.125,18.125,0,0,1,2.151,6.331,14.145,14.145,0,0,1-1.811,9.509c-1.594,2.925-1.672,4.33-.292,5.275,1.044.716,1.651.514,2.306-.763.572-1.115.86-.849.445.408a1.7,1.7,0,0,1-.957,1.1c-.822.341-1.434.179-2.4-.632-.646-.543-.716-.739-.716-2.014,0-1.534-.294-1.8-1.059-.953-1.265,1.4-4.592,2.109-6.769,1.446-1.715-.522-3.64-2.852-3.64-4.4,0-1.016.335-.678.8.8a4.07,4.07,0,0,0,2.761,3c3.5,1.236,7.542-.605,9.523-4.34,1.473-2.776,1.83-5.3,1.279-9.03a11.483,11.483,0,0,0-1.655-4.859,11.053,11.053,0,0,0-2.777-3.525,10.8,10.8,0,0,0-2.223-1.771,6,6,0,0,1-1.413-.5,22.609,22.609,0,0,0-3.025-.986,10.977,10.977,0,0,0-7.115.513c-6.1,2.152-9.872,6.368-12.122,13.553q-1.106,3.532.178,2.371a3.254,3.254,0,0,1,3.473-.151c.728.45.852.655.849,1.4-.005,1.433-.245,1.933-1.124,2.351-1.223.58-2,.235-2.372-1.059-.248-.857-.241-1.013.05-1.013.233,0,.343.269.343.832,0,.688.1.857.6.982a1.46,1.46,0,0,0,2.032-1.1c.292-.885.278-1.026-.163-1.619-.735-.989-1.976-1.008-3.186-.049-1.712,1.355-2.425,3.972-2.458,9.013-.024,3.687.493,8.979.933,9.559.273.36.32.075.326-1.969.006-2.263.051-2.479.865-4.083a21.1,21.1,0,0,1,2.387-3.464,23.544,23.544,0,0,0,2.26-3.085l.731-1.314-.084,1.553c-.092,1.694-.911,3.587-2.739,6.332s-2.249,3.824-2.47,6.363a12.386,12.386,0,0,0,1.191,7.2c.885,2.116,1.258,4,.791,4-.194,0-.807-1.51-1.884-4.638-.8-2.337-1.337-2.984-2.592-3.151-1.945-.259-2.049-.317-2.534-1.411a3.559,3.559,0,0,0-.878-1.3c-.359-.212-.365-.272-.052-.482.854-.572,2.482-.034,3.2,1.055.22.335.517.609.659.609.3,0,.231-.508-.483-3.822a79.557,79.557,0,0,1-2.011-16.771c-.03-7.2.722-13.642,2.73-23.369.82-3.973.949-5,.877-6.953l-.083-2.292-1.01-1.208a6.789,6.789,0,0,1-1.846-4.595,4.506,4.506,0,0,0-.777-2.575c-.648-.85-.559-1.349.124-.7.23.219.742.656,1.139.971,1.2.955,2.4,3.725,2.839,6.541.209,1.349.367,2.531.352,2.628a5.606,5.606,0,0,0,.016.774c.043.59.048.589.369-.119a8,8,0,0,0,.732-2.151c.038-.262.369-1.66.736-3.106a17.8,17.8,0,0,0,.662-5.376c-.005-3.281-.323-4.089-2.138-5.449a6.136,6.136,0,0,1-2.367-3.974,5.006,5.006,0,0,0-1.8-3.133c-.549-.3-.558-.328-.106-.337,1.159-.022,4.392,3.041,5.465,5.178a21.719,21.719,0,0,1,1.562,6.986c.005,1.741.438,1.314.883-.872.3-1.447.522-2.68.7-3.816Z" transform="translate(779.19 -1046.12)" fill="#9b429f"/>
  </g>
</svg>
