<svg xmlns="http://www.w3.org/2000/svg" width="168.408" height="55" viewBox="0 0 168.408 55">
  <path id="Path_10" data-name="Path 10" d="M297.608,675.025c-.287.741-1.423.541-2.7-.475-1.9-1.508-3.474-1.981-8.074-2.425a60.409,60.409,0,0,1-8.706-1.548,38.3,38.3,0,0,0-5.629-1.13,30.76,30.76,0,0,0-11.347,2.968,70.7,70.7,0,0,1-9.731,3.8c-1.058.279-2.572.68-3.365.89l-1.443.383.962.3a42.636,42.636,0,0,0,5.69.474c5.549.21,7.789-.149,10.3-1.651a24.43,24.43,0,0,1,2.189-1.2c.53-.2,1.849.555,1.849,1.061,0,.521-4.643,3.346-6.218,3.783a5.225,5.225,0,0,0-1.636.649c-.08.128.719.547,1.776.929a32.787,32.787,0,0,1,4.176,1.986c2.062,1.18,3.215,1.438,2.282.511-.659-.653-.414-2.153.587-3.6,1.26-1.817,2.108-2.378,3.6-2.378,2.76,0,4.186,1.292,5.267,4.772l.544,1.749.28-2.067c.453-3.354.537-3.563,2.021-5.036,1.328-1.318,1.509-1.4,2.8-1.254,2.893.324,4.376,1.715,4.631,4.346a4.789,4.789,0,0,1-.719,3.283,13.9,13.9,0,0,1-1.7,2.553c-.453.479-.763.933-.687,1.006a7.156,7.156,0,0,0,2.059-.671c3.448-1.444,6.591-.98,7.8,1.152.889,1.57,1.173,3.75.626,4.8a5.048,5.048,0,0,1-1.856,1.536c-1.308.673-1.714.724-4.4.55a11.728,11.728,0,0,0-2.965,0,12.69,12.69,0,0,0,1.779,1.8c2.092,1.9,2.708,2.95,2.708,4.625,0,1.358-.765,2.132-3.04,3.076a3.673,3.673,0,0,1-3.854-.173c-1.123-.557-1.555-1.063-2.515-2.943l-1.158-2.27-.008,1.59a8.114,8.114,0,0,1-.78,3.238c-.659,1.4-.956,1.7-2,1.987a5.143,5.143,0,0,1-4.212-.3,3.886,3.886,0,0,1-2.623-3.794c0-1.314.511-2.132,2.844-4.55.8-.831,1.258-1.511,1.013-1.511a19.971,19.971,0,0,0-2.863.829c-3.852,1.319-6.2.726-7.518-1.9a3.8,3.8,0,0,1-.382-2.6c.28-1.849,1.7-2.987,4.1-3.285l1.688-.209-1.443-.837c-10.649-6.18-20.088-8.432-31.857-7.6a45.467,45.467,0,0,0-5.441.571,13.391,13.391,0,0,1-2.274.605c-4.483.917-4.613.958-9.622,3.007a118.379,118.379,0,0,0-11.725,5.889c-3.774,2.363-5.541,3.618-5.1,3.621.835.007,13.583-3.234,14.422-3.665.856-.442,1.119-.679,3.846-3.488,2.006-2.066,2.84-2.566,5.085-3.044a3.158,3.158,0,0,0,1.769-.795c.1-.253.6-.457,1.12-.457.847,0,.964.127,1.155,1.249a3.336,3.336,0,0,1-.181,1.988,9.906,9.906,0,0,1-3.6,3.776l-1.024.383,1.018.233a19.192,19.192,0,0,0,6.994-.661,28.656,28.656,0,0,0,3.366-2.206c2.5-1.842,4.176-2.676,6.089-3.022,2.522-.458,3.588-.909,3.868-1.64.342-.892,1.282-.954,2.031-.132.419.46.5.9.335,1.829-.169.959-.672,1.659-2.313,3.218-2.119,2.012-5.974,4.21-7.385,4.21-.386,0-.7.143-.7.318s.28.319.621.319c1.112,0,5.461,1.837,8.476,3.58,4.743,2.741,8.289,5.659,10.495,8.634,1.052,1.42,1.285,3.571.421,3.9-.633.241-2.642-.8-3.226-1.666-.553-.823-2.839-1.867-5.556-2.537a18.283,18.283,0,0,1-2.907-.941,20.479,20.479,0,0,1-4.277-4.65,16.747,16.747,0,0,0-5.169-3.71c-3.483-1.321-16.452-2.569-17.966-1.728-.56.311-.53.357.344.536a19.855,19.855,0,0,1,6.257,2.28c2.332,1.42,5.86,5.037,6.475,6.64.663,1.726.408,4.518-.438,4.784-.954.3-1.685-.1-2.2-1.207a4.916,4.916,0,0,0-3.349-2.463c-1.389,0-3.834-1.549-5.048-3.2-2.663-3.618-6.481-4.881-12.3-4.066a44.593,44.593,0,0,1-4.544.413c-1.125.009-1.682.145-1.682.411,0,.218.252.4.561.4,1.125.008,5.763,1.815,7.228,2.815,1.718,1.174,2.466,2.385,2.466,3.993,0,1.664-.84,1.974-2.433.9-1.03-.7-1.736-.879-3.977-1.028a10.627,10.627,0,0,1-5.608-1.679c-3.519-1.828-5.452-2.177-8.813-1.587-1.322.231-3.413.564-4.647.738a30.7,30.7,0,0,0-3.2.6c-1.041.309-6.55,1.318-10.416,1.91-1.322.2-5.432.452-9.134.555-7.262.2-12.388-.156-17.144-1.2-3.984-.874-4.056-.862-3.194.522a3.359,3.359,0,0,1,.545,2.558c-.289,2.542-1.806,3.376-3.4,1.872-.465-.439-1.293-1.195-1.841-1.68-.861-.763-1.029-1.175-1.228-3.022-.317-2.935-.5-3.091-6.234-5.166-1-.361-1.695-.611-2.2-.769a18.645,18.645,0,0,0,.4-2.253c0-.022,0-.044,0-.065.147-.035.3-.069.459-.1a5.773,5.773,0,0,0,2.261.461,5.529,5.529,0,0,0,.834-.07,5.81,5.81,0,0,0,2.255.719,17.45,17.45,0,0,0,4.035.987c3.554.5,6.731-.511,10.51-3.351,4.6-3.455,8.536-4.707,10.932-3.478,1.369.7,1.153,1.7-.489,2.259a11.472,11.472,0,0,0-3.074,2.152c-2.127,2.014-5.4,4.187-6.74,4.48-1.733.377-1.3.735,1.18.966,3.215.3,10.759-.371,12.452-1.107.706-.307,1.744-.737,2.308-.958a3.252,3.252,0,0,0,1.687-4.492c-.472-.876-2.552-.877-2.552,0,0,.4.257.651.721.716.526.074.749.35.827,1.021.12,1.049-.338,1.454-1.65,1.461a2.221,2.221,0,0,1-2.428-1.625,4.111,4.111,0,0,1,1.064-4.073,4.553,4.553,0,0,1,4.632-.519c1.668.856,2.312,2.21,2.24,4.713a8.328,8.328,0,0,0,.126,2.334c.1.1.594-.1,1.093-.441s2.2-1.427,3.791-2.407c4.4-2.719,6.868-5.094,8.48-8.171,2.7-5.148,3.476-10.02,2.31-14.485-1.332-5.1-2.888-7.449-7.187-10.854-2.849-2.256-4.432-2.841-8.412-3.112a17.149,17.149,0,0,0-10.044,1.939c-4.352,2.387-5.9,4.2-6.453,7.56-.766,4.666,1.624,7.833,5.909,7.833.977,0,1.776-.143,1.776-.318s-.613-.322-1.362-.326c-3.057-.016-5.593-2.139-5.284-4.425.57-4.217,3.807-5.515,7.888-3.163a3.079,3.079,0,0,0,1.192.513,6.117,6.117,0,0,0-.407-1.716c-.633-1.966-.4-3.078.9-4.282a3.989,3.989,0,0,1,4.16-.9,5.949,5.949,0,0,1,2.705,3.565c.237.967.616,1.12,1.016.409.294-.52,2.685-1.443,3.742-1.443a6.167,6.167,0,0,1,2.356,1.45c2.943,2.555,2.969,4.671.082,6.635a6.962,6.962,0,0,0-1.566,1.3c-.068.175.375.461.984.635,3.539,1.016,5.188,4.437,3.394,7.037-1.331,1.927-3.829,1.954-6.9.073l-1.109-.681.482.925a5.192,5.192,0,0,1,.251,4.795c-1.361,2.168-3.809,2.885-5.629,1.65-1.384-.94-1.915-2.159-1.883-4.328.013-.922-.075-1.677-.2-1.677a3.076,3.076,0,0,0-.96.781,6.7,6.7,0,0,1-4.975,2.513c-1.565.022-1.872-.087-2.838-1.017-1.741-1.674-2.162-4.109-.952-5.5.4-.464.3-.6-1-1.218a7.39,7.39,0,0,1-3.893-5.1c-.58-2.244-.38-5.381.419-6.592a5.2,5.2,0,0,0,.624-1.808c.128-.945.029-1.145-.744-1.515a4.749,4.749,0,0,1-2.358-3.625c0-3.24,6.362-4.037,6.672-.837.056.579.2,1.008.324.954.378-.168,4.64-1.725,5.823-2.127a30.553,30.553,0,0,1,4.665-.695c3.361-.3,3.689-.272,6.407.51a19.126,19.126,0,0,1,8.144,4.406c5.449,4.834,7.237,8.793,7.2,15.938-.017,3.02-.166,4.522-.555,5.567a9.181,9.181,0,0,0-.536,1.894,16.629,16.629,0,0,1-1.178,2.945,12.889,12.889,0,0,0-1.042,2.559c.073.043.555.313,1.072.6a2.909,2.909,0,0,1,1.343,1.879,2.566,2.566,0,0,1-.207,2.542,2.77,2.77,0,0,1-3.37,1.571c-1.2-.453-1.023-1.48.356-2.052s1.181-1.262-.267-.947c-1.2.261-2.476.94-7.448,3.956-2.115,1.284-4.567,2.66-5.448,3.058-1.427.644-1.5.725-.692.742a43.869,43.869,0,0,0,9.429-2.083c1.188-.449,3.157-1.1,4.377-1.441a12.276,12.276,0,0,0,5.468-3.3c.592-.583.639-.978.552-4.681-.075-3.234.009-4.242.423-5.036a2.048,2.048,0,0,0,.18-1.951c-.767-2.185,1.056-2.9,2.811-1.1a8.34,8.34,0,0,1,1.927,6.009,6.865,6.865,0,0,0,.093,1.988c.3.3,2.178-2.324,2.828-3.96a10.415,10.415,0,0,0,.646-3.8c0-2.644-.612-3.587-3.022-4.652a5,5,0,0,1-3.429-3.967c-.456-1.814-2.322-4.136-3.324-4.136-.754,0-.562-.858.24-1.071a6.831,6.831,0,0,1,4.943.779,7.781,7.781,0,0,1,3.584,3.028,20.446,20.446,0,0,1,3.463,7.934c.108.781.368,1.417.58,1.417a6.64,6.64,0,0,0,1.3-2.624c1.265-3.641,1.294-6.733.085-9.024-1.408-2.668-3.238-3.751-7.461-4.414-5.89-.925-9.609-5.425-6.908-8.36,1.136-1.235,2.159-1.334,2.574-.249.377.984,1.254,1.45,2.724,1.45,1.4,0,4.448,1.516,5.917,2.941a12.279,12.279,0,0,1,1.943,2.837c.893,1.831,3.381,4.528,3.889,4.216a3.456,3.456,0,0,0,.277-1.725,17.752,17.752,0,0,1,.829-4.16c1.436-4.514,4.226-6.659,8.657-6.655a4.365,4.365,0,0,1,3.3.969c2.472,1.777,2.082,2.608-1.088,2.314-1.872-.174-1.959-.149-2.335.67a4.67,4.67,0,0,0-.4,1.55c-.019,1.962-1.557,3.893-4.485,5.63a5.809,5.809,0,0,0-2.706,4.453,31.37,31.37,0,0,1-1.788,6.3,27.169,27.169,0,0,1-4.364,8.442c-1.979,2.564-2.114,3.144-.409,1.769a39.685,39.685,0,0,0,6.068-7.006c.793-1.11,2.467-3.164,3.72-4.565,2.875-3.216,3.23-4.181,2.4-6.526-.639-1.8-.475-2.862.441-2.862.576,0,1.576,1.419,2.074,2.943a3.427,3.427,0,0,0,.535,1.193c.08,0,1.159-.6,2.4-1.334,2.076-1.229,2.234-1.4,2.014-2.147a3.239,3.239,0,0,1,.7-3.532,3,3,0,0,1,1.469-.94c.9,0,.958-.489.145-1.248a3.848,3.848,0,0,1-.138-5.091c.993-1.059,3.351-.91,5.061.32a5.6,5.6,0,0,0,1.438.874c.043-.057.542-.783,1.108-1.614,1.119-1.645,1.668-1.808,3.948-1.18a3.035,3.035,0,0,1,2.436,3.244c-.109,1.127-.063,1.2.79,1.2a3.276,3.276,0,0,1,2.615,2.41,5.107,5.107,0,0,1-.145,2.069c-.372,1.37-1.162,1.883-2.9,1.883-1.147,0-1.154.083-.119,1.43,1.124,1.462,1.113,2.8-.032,3.988a2.62,2.62,0,0,1-2.4.943c-1.612,0-2.652-.761-3.389-2.48l-.368-.859-.239,1.2c-.4,2.024-1.24,2.78-3.073,2.78-1.807,0-2.862-.759-2.862-2.061,0-1.23-1.229-1.359-2.929-.307-.768.474-1.461.92-1.539.989s.39.638,1.041,1.265c1.338,1.29,1.469,1.849.546,2.339-.483.257-.884.212-1.655-.183-2.65-1.36-5.594.286-9.728,5.435-1.543,1.922-3.3,4.046-3.91,4.717s-1.028,1.3-.935,1.389a4.6,4.6,0,0,0,1.793-.825c3.61-2.2,10.568-4.951,17-6.707,1.146-.314,2.925-.8,3.953-1.088a94.05,94.05,0,0,1,9.828-1.791,37.942,37.942,0,0,0,4.006-.815c1.057-.289,2.278-.6,2.713-.7a13.555,13.555,0,0,0,4.9-3.062c.454-.635.541-1.329.464-3.7-.072-2.177.01-2.96.322-3.079a.8.8,0,0,0,.418-.722,1.473,1.473,0,0,1,.5-.977c1.665-1.372,1.584-3.459-.158-4.061a1.159,1.159,0,0,1-.695-1.926c.676-1.059,5.51.651,6.629,2.345a7.617,7.617,0,0,1,.518,3.219,10.422,10.422,0,0,1-2.688,7.624c-.689.742-1.132,1.424-.983,1.516a10.947,10.947,0,0,0,2.979-.847,11.077,11.077,0,0,0,4.987-3.24,19.272,19.272,0,0,0,3-3.657c1.794-3.537,2.988-5.075,5.249-6.758,3.145-2.342,6.388-3.094,8.554-1.982a1.372,1.372,0,0,1,.946,1.4c0,1.057-.445,1.3-2.4,1.3-1.184,0-1.609.2-2.971,1.418a21.493,21.493,0,0,0-3.159,3.98,10.314,10.314,0,0,1-2.1,2.728,1.209,1.209,0,0,0-.7.593c-.124.321.4.464,2.134.589a11.172,11.172,0,0,0,4.862-.608c7.546-2.276,13.227-1.378,16.725,2.644,1.751,2.014,3.472,5.259,3.184,6.006Zm-8.67,18.914c2.051,0,4.294-.887,4.66-1.843a3.582,3.582,0,0,0-.722-3.391c-.543-.685-.9-.81-2.329-.81a18.984,18.984,0,0,0-6.985,1.941c-1.438.727-2.819.795-2.819.137,0-.256.321-.636.714-.845.811-.431.874-.494,2.712-2.708a12.985,12.985,0,0,0,2.034-3.649c.657-1.936.664-2.077.148-3.028a3.534,3.534,0,0,0-1.327-1.353,5.983,5.983,0,0,0-2.025-.355,2.22,2.22,0,0,0-2.068.979,4.768,4.768,0,0,0-.831,1.193c0,.118-.214,1.5-.475,3.077a36.3,36.3,0,0,0-.479,4.313c-.006,1.551-.635,2.767-1.239,2.4a1.259,1.259,0,0,1-.369-.966,30.942,30.942,0,0,0-2.673-8.071,3.67,3.67,0,0,0-3.111-1.168c-1.448.316-2.869,1.813-2.869,3.023a5.545,5.545,0,0,0,2.555,4.149,38.627,38.627,0,0,1,3.221,2.466c1.362,1.153,2.16,1.621,2.516,1.475a9.746,9.746,0,0,1,1.82-.371c1.181-.144,1.391-.053,2.323,1a5.531,5.531,0,0,1,1.025,1.418c0,.295,4.633.992,6.593.992Zm-7.515,5.147a8.08,8.08,0,0,0,1.914,3.51c1.165,1.215,1.315,1.277,2.7,1.123,2.028-.227,2.72-.931,2.72-2.769a2.785,2.785,0,0,0-1.2-2.625c-1.843-1.762-5.529-4.157-5.529-3.593a1.3,1.3,0,0,1-.641.869c-.8.5-.8.744.04,3.484Zm-.946-6.848a1.844,1.844,0,0,0-2.833.306c-.491.745-.5.919-.077,1.67a1.809,1.809,0,0,0,1.371.941,1.715,1.715,0,0,0,1.539-2.916Zm-8.714,9.191c-.9,2.338,1.731,4.24,4.748,3.439.994-.265,1.878-2.1,2.129-4.412.114-1.048.279-2.37.368-2.939.137-.881.065-1.034-.494-1.034a2.234,2.234,0,0,1-1.3-.636c-.762-.756-.961-.793-.961-.175a.933.933,0,0,1-.444.716,22.441,22.441,0,0,0-4.049,5.041Zm-6.379-10.22c-1.841,1.944-.246,4.956,2.624,4.956a23.032,23.032,0,0,0,4.722-1.066c2.969-.94,3.377-1.156,3.46-1.837.089-.722-.125-.837-3.365-1.8h0c-4.294-1.272-6.409-1.346-7.441-.256ZM162.693,669.147a8.806,8.806,0,0,0-2.564-.969c-2.02.014-3.828,2.4-3.034,4.013s1.833,2.061,5.609,2.432a20.077,20.077,0,0,0,4.048.138,1.115,1.115,0,0,0,.54-1.1c0-1.169-2.064-3.193-4.6-4.509Zm7.046-5.917a3.393,3.393,0,0,0-4.125.622c-.976,1.431,1.776,8.112,3.349,8.132.717.009,1.06-.671,1.69-3.353.6-2.547.252-4.591-.914-5.4Zm10.2,4.278a4.805,4.805,0,0,0-1.523-1.573h0a4.535,4.535,0,0,0-1.346-.615,6.259,6.259,0,0,0-3.318,2.207c-1.006,1.244-2.524,4.062-2.271,4.22.077.048.617.419,1.2.824,1.233.858,2.17.759,4.71-.5,3.008-1.485,3.6-2.548,2.549-4.567Zm-.527,13.618c1.634-.184,2.305-.818,2.305-2.183,0-2.157-1.732-3.525-4.968-3.925-.881-.109-1.927-.265-2.323-.345-.447-.092-.722,0-.723.255a4.224,4.224,0,0,1-.482,1.317c-.474.9-.461.93,1.016,2.227,2.786,2.445,3.55,2.837,5.175,2.655Zm-19.691,2.388c1.774,1.426,4.339.259,7.1-3.231.848-1.072,1.7-1.895,1.888-1.83.365.124.384,1.094.08,4.133-.31,3.094,1.077,5,3.288,4.519,2.93-.639,3.025-3.856.232-7.922-.954-1.389-1.084-2.468-.369-3.057a1.845,1.845,0,0,0-.231-2.686c-1.694-1.177-3.454-.1-3.454,2.122,0,1.116-.055,1.193-.628.888-1.257-.667-6.416,1.02-8.188,2.679-1.526,1.428-1.425,3.014.28,4.385Zm13.219,15.99a50.612,50.612,0,0,0,7.174-4.167c3.9-2.5,4.89-2.989,6.01-2.989,1.174,0,1.681.521,1.687,1.733,0,.743.077.859.316.493a1.757,1.757,0,0,0-.5-2.429,2.16,2.16,0,0,0-2.956-.257c-1,.695-.89.307.41-1.45a24.733,24.733,0,0,0,2.855-6.2c.035-.175.219-.819.41-1.431a18.327,18.327,0,0,0-.855-14c-.867-1.92-1.648-2.964-3.988-5.34a19.093,19.093,0,0,0-3.631-3.135c-.4-.1-.721-.3-.721-.435,0-.48-2.412-1.673-4.326-2.142a32.431,32.431,0,0,0-8.4-.256,35.078,35.078,0,0,0-6.178,1.829c-4.223,1.955-6.4,2.127-7.212.571-.307-.591-.362-.989-.153-1.117a.364.364,0,0,0,.14-.5c-.1-.168.543-.3,1.5-.3,1,0,1.561-.115,1.381-.282h0a2.527,2.527,0,0,0-2.067-.446,5.533,5.533,0,0,0-1.316.942c-.81.748-.82.8-.338,1.859.542,1.187,1.657,1.744,3.493,1.744h1.1l-.818,1.034c-.45.568-1.059,1.3-1.354,1.634-.59.661-.989,2.061-1.278,4.495-.217,1.824.477,4.938,1.277,5.732a1.76,1.76,0,0,1,.514.762c0,.524,2.477,1.928,3.382,1.918.862-.01.8-.081-.72-.811-3.19-1.532-4.51-5.238-3.412-9.578.636-2.511,1.986-4.134,5.24-6.293a20.626,20.626,0,0,1,9.622-2.859c3.618-.314,8.153.926,9.733,2.661a2,2,0,0,0,1.123.67c.5,0,5.232,4.8,5.929,6.017a16.665,16.665,0,0,1,2.137,5.37c1.186,4.693.474,9.37-2.324,15.265-1.621,3.414-6.992,8.279-11.565,10.477a30.5,30.5,0,0,1-5.415,2c-.424,0-.317-.545.21-1.067,1.958-1.944,1.176-6.4-1.265-7.2-1.475-.482-2.682.075-3.523,1.631-.6,1.108-.6,1.183-.055,2.012.688,1.042,1.006.884.489-.243-1.127-2.453,1.908-4.132,3.9-2.157a2.789,2.789,0,0,1,.937,2.576c0,2.433-.669,3.314-3.354,4.415a17.316,17.316,0,0,1-5.681,1.621,1.491,1.491,0,0,0-1.07.334c-.239.384,1.79.209,5.778-.5,1.41-.249,3.085-.532,3.722-.628a20.373,20.373,0,0,0,4.006-1.594Zm-17.246-40.491c-.645-.639-1.859-.473-1.859.255,0,.515.213.636,1.121.636,1.175,0,1.382-.251.738-.891Zm73.373-1.073a2.228,2.228,0,0,0-3.29.267c-.5.764-.512.929-.082,1.67.532.916,4.492,3.076,5.032,2.744a1.788,1.788,0,0,0,.343-1.236c0-.956-.607-2-2-3.446Zm7.793-1.523a4.344,4.344,0,0,0-1.683-.328,1.534,1.534,0,0,0-1.624.981,7.812,7.812,0,0,0-.757,2.194c-.165,1.029-.09,1.271.494,1.581.918.488,1.568.242,3-1.135,1.366-1.316,1.614-2.741.574-3.293Zm1.671,7.941c2.466,0,3.62-1.388,2.209-2.655-.784-.7-2.164-.634-3.821.193-2.4,1.194-1.565,2.462,1.612,2.462Zm-3.584,5.239a2.088,2.088,0,0,0,3.024.986c1.227-.8,1.033-1.933-.609-3.563-1.363-1.353-2.173-1.653-3.02-1.12-.469.3-.171,2.114.6,3.7Zm-1.4-4.785c1.049-.366,1.282-1.132.562-1.847h0c-.793-.788-1.725-.639-2.1.334C231.547,664.5,232.3,665.245,233.543,664.812Zm-4.583,6.59c1.854.839,2.994-.377,3.148-3.353.047-.9-.065-1.608-.266-1.678a5.283,5.283,0,0,0-2,1.215c-1.4,1.127-1.656,1.5-1.656,2.4,0,.818.18,1.145.778,1.415Zm-3.923-3.433c.6.375,1.306.084,3.843-1.592a17.1,17.1,0,0,1,1.932-1.153c.292-.106.316-.257.08-.507h0c-.53-.565-4.971-.789-5.88-.3A2,2,0,0,0,225.037,667.969Zm68.64,2.782c-3.383-3.922-8.835-5.141-15.03-3.359a18.038,18.038,0,0,1-6.526.761,24.821,24.821,0,0,0-4.277.181c-.831.335-.691-.389.16-.826a19.952,19.952,0,0,0,4.62-4.849c2-3.858,4.6-6.254,6.786-6.254.557,0,1.013-.144,1.013-.319,0-.463-2.154-.349-3.989.209a13.71,13.71,0,0,0-7.545,6.792c-2.027,3.973-4.134,6.047-7.7,7.572-.793.339-2.451,1.082-3.685,1.649-3.165,1.456-6.269,2.591-6.692,2.449-.2-.067.44-.63,1.416-1.252a13.857,13.857,0,0,0,5.344-6.161c1.839-3.844,1.5-7.009-.944-8.817-.888-.657-1.643-.518-.946.174.744.738.439,3.167-.588,4.671a4.654,4.654,0,0,0-.957,3.34c0,3.128-.468,4.268-2.549,6.254a8.831,8.831,0,0,1-4.54,2.6,36.116,36.116,0,0,1-4.126,1.039,22.278,22.278,0,0,0-2.4.487c-.529.153-2.981.587-5.448.963a73.534,73.534,0,0,0-8.173,1.786c-2.027.605-4.334,1.289-5.127,1.521-3.783,1.1-14.883,6.439-16.748,8.057-1.841,1.6-.012-1.692,2.351-4.226.652-.7,1.878-2.132,2.724-3.181,4.746-5.891,6.019-7.206,7.871-8.134,2.109-1.057,3.155-1.158,4.294-.419.434.283.79.385.79.228,0-.423-1.757-1.378-2.534-1.378-.369,0-.669-.107-.666-.238.009-.357,3.117-2.307,3.677-2.307.543,0,.651-.5.171-.791-.309-.189-4.9,2.7-5.292,3.331a.855.855,0,0,1-.663.323c-.333,0-.462-.394-.462-1.412a2.787,2.787,0,0,0-.32-1.609c-.2-.123-.321.506-.321,1.668,0,1.807-.058,1.934-1.843,4.04-1.013,1.2-2.23,2.669-2.7,3.272a12.813,12.813,0,0,1-1.308,1.466,17,17,0,0,0-1.673,2.117,26.96,26.96,0,0,1-2.162,2.7,27.9,27.9,0,0,0-2.034,2.447c-1.474,2.006-7.845,7.025-11.975,9.435a24.089,24.089,0,0,1-3.792,1.954c-.868,0-.167-.766,1.539-1.681,3.3-1.77,5.628-3.694,9.051-7.488a29.149,29.149,0,0,0,3.441-4.243,1.218,1.218,0,0,1,.6-.8c.678-.42,2.668-4.283,2.755-5.347a2.193,2.193,0,0,1,.31-.769,77.893,77.893,0,0,0,2.122-8.584,6.064,6.064,0,0,1,3.037-4.37c2.721-1.712,3.553-2.664,3.955-4.522.515-2.385.864-2.907,1.943-2.907.763,0,.892-.109.753-.636-.319-1.209-3.159-.636-5.312,1.072-2.555,2.025-3.173,3.579-5.2,13.066-.148.7-.271.823-.477.492a.8.8,0,0,1-.111-.714c.181-.29-1.91-3.218-3.579-5.01a5.8,5.8,0,0,1-1.25-2.017c-.332-1.405-2.32-3-4.627-3.715a16.548,16.548,0,0,0-2.564-.637,7.383,7.383,0,0,1-1.9-.623c-2.49-1.122-3.254-.016-1.378,1.995,1.349,1.446,3.312,2.331,7.233,3.262,2.484.59,3.422,1.289,5.788,4.317a5.763,5.763,0,0,1,1.608,3.828c.335,3.249-.553,6.462-2.845,10.288-1.208,2.018-1.662,1.827-1.69-.708-.04-3.72-2.725-9.487-5.382-11.562a7.636,7.636,0,0,0-3.958-1.557c-.83.009-.847.035-.251.372a5.281,5.281,0,0,1,2.4,3.56c.437,2.024.673,2.283,3.056,3.355,1.756.79,2.069,1.077,2.826,2.584,1.609,3.2,1.051,6.345-1.834,10.317-1.079,1.487-4.665,4.739-4.932,4.474a7.523,7.523,0,0,1,.771-1.979c1.662-3.466.988-9.285-1.112-9.594-.606-.088-.665.012-.5.853a4.913,4.913,0,0,1-.369,2.408,4.54,4.54,0,0,0-.195,3.257c.49,2.423.459,4.09-.1,5.156-.664,1.275-4.773,4.169-7.391,5.2-7.072,2.8-11.964,3.657-22.464,3.95-5.439.151-7.463.109-7.631-.161a.245.245,0,0,1,.191-.409c.821-.083-2.814-.538-4.518-.566-2.214-.036-9-1.283-9-1.654a6.485,6.485,0,0,1,2.644-.292,14.791,14.791,0,0,0,6.7-1.513,23.069,23.069,0,0,0,4.967-3.681,15.61,15.61,0,0,1,2.315-1.793c2.206-1.35,1.631-1.614-1.682-.771a16.475,16.475,0,0,0-6.6,3.554,13.73,13.73,0,0,1-7.165,3.26c-2.891.478-4.612.212-8.486-1.31-2.191-.86-5.128-1.254-4.743-.636a6.131,6.131,0,0,0,1.862.813c3.3,1.043,5.941,2.341,6.508,3.2a5.615,5.615,0,0,1,.6,1.828c.1.656.261,1.684.354,2.285.141.9.439,1.241,1.663,1.919a4.037,4.037,0,0,0,1.913.668c1.242-.473-.551-4.446-2.446-5.419-.932-.478-1.361-1.441-.642-1.441.186,0,1.592.347,3.125.771a70.5,70.5,0,0,0,18.747,2.463c7.2.029,11.736-.553,21.536-2.757,2.256-.507,3.293-.706,8.012-1.532,4.3-.753,5.562-.492,10.382,2.156a6.873,6.873,0,0,0,3.538,1.127,16.329,16.329,0,0,1,3.335.476,20.434,20.434,0,0,0,2.143.477c.716,0-.564-1.673-2.06-2.7-2.571-1.756-4.954-2.447-9.085-2.636a14.258,14.258,0,0,1-3.606-.4c0-.129.4-.386.882-.572a18.909,18.909,0,0,1,3.69-.867c.487-.087,2.145-.463,3.685-.833a27.111,27.111,0,0,1,6.806-.686c5.435-.018,6.967.551,10.115,3.753,1.795,1.826,2.655,2.444,4.166,2.991,2.7.977,3.282,1.312,4.3,2.467.5.563.979.948,1.071.858.321-.319-.67-2.9-1.66-4.332-2.924-4.217-8.746-6.732-15.418-6.66a43.444,43.444,0,0,0-4.607.247c-.866.145-1.19.1-1.043-.134.3-.483,2.611-1.011,9.355-2.137,5.211-.869,15.009-.255,19.348,1.215,2.665.9,5.178,3,8.419,7.027.919,1.14,2.277,1.768,6.651,3.069A12.173,12.173,0,0,1,254.545,705c.733.641.709.359-.086-.979-.812-1.365-6-5.357-9.709-7.466a41.737,41.737,0,0,0-10.4-4.048c-1.684-.263-1.758-.7-.16-.946a26.706,26.706,0,0,0,7.121-2.343c2.03-1.172,5.458-4.586,5.458-5.436,0-.674-.018-.671-.721.121a6.041,6.041,0,0,1-3.125,1.4c-2.868.7-3.692,1.1-6.8,3.318-3.7,2.632-4.378,2.807-10.534,2.7-3.275-.055-5.237-.207-5.205-.406.027-.175.676-.547,1.442-.827a13.052,13.052,0,0,0,5.586-4c1.183-1.909.936-3.1-.349-1.692a2.272,2.272,0,0,1-1.668.636c-1.556,0-2.523.607-5.062,3.182-2.619,2.656-4.288,3.594-7.558,4.248-1.307.262-3.17.711-4.139,1s-2.34.664-3.045.837c-2.6.637-8.576,2.511-10.011,3.141-.844.37-1.6.53-1.76.371-.308-.306.452-.862,3.23-2.36a21.557,21.557,0,0,0,2.708-1.713,11.5,11.5,0,0,1,2-1.258c.608-.287,1.106-.621,1.106-.743s.5-.42,1.122-.66,1.121-.557,1.121-.7.339-.4.752-.551a27.459,27.459,0,0,0,2.805-1.511,76.551,76.551,0,0,1,24.69-9.011c3.438-.547,11.634-.245,16.461.606a48.136,48.136,0,0,1,18.107,7.348c2.975,2.1,5.79,3.381,5.76,2.628-.01-.231-.654-.619-7.529-4.533a51.377,51.377,0,0,0-8.942-4.265c-2.149-.617-1.734-1.049,1.164-1.207a9.428,9.428,0,0,0,4.34-1c.925-.47,1.682-1,1.682-1.167,0-.448-.154-.408-1.977.509a10.011,10.011,0,0,1-2.954.935c-5.234.448-6.951.446-9.491-.01-1.5-.268-4.063-.579-5.7-.69-4.26-.288-4.28-.747-.056-1.335a35.831,35.831,0,0,0,4.487-1.019,17.127,17.127,0,0,1,2.628-.671c.407.1,4.1-1.391,7.935-3.2a36.5,36.5,0,0,1,9.074-3.25c3.562-.8,5.064-.685,10.636.815a73.949,73.949,0,0,0,7.809,1.227c4.023.451,5.911.8,6.811,1.268,1.618.838,1.646.28.076-1.541Z" transform="translate(-129.23 -654.474)" fill="#eb97bd"/>
</svg>
